<svg width="58" height="58" viewBox="0 0 58 58" fill="none" xmlns="http://www.w3.org/2000/svg">
<path fill-rule="evenodd" clip-rule="evenodd" d="M58 29C58 45.0163 45.0163 58 29 58C12.9837 58 0 45.0163 0 29C0 12.9837 12.9837 0 29 0C45.0163 0 58 12.9837 58 29ZM19.5005 24C21.4335 24 23.0005 22.433 23.0005 20.5C23.0005 18.567 21.4335 17 19.5005 17C17.5675 17 16.0005 18.567 16.0005 20.5C16.0005 22.433 17.5675 24 19.5005 24ZM38.5005 24C40.4335 24 42.0005 22.433 42.0005 20.5C42.0005 18.567 40.4335 17 38.5005 17C36.5675 17 35.0005 18.567 35.0005 20.5C35.0005 22.433 36.5675 24 38.5005 24ZM44.3039 37.4689C45.1152 37.301 45.6367 36.5073 45.4689 35.6961C45.301 34.8848 44.5073 34.3633 43.6961 34.5311L14.6961 40.5311C13.8848 40.699 13.3633 41.4927 13.5311 42.3039C13.699 43.1152 14.4927 43.6367 15.3039 43.4689L44.3039 37.4689Z" fill="#FD5C54"/>
</svg>
