<svg width="58" height="58" viewBox="0 0 58 58" fill="none" xmlns="http://www.w3.org/2000/svg">
<path fill-rule="evenodd" clip-rule="evenodd" d="M29 58C45.0163 58 58 45.0163 58 29C58 12.9837 45.0163 0 29 0C12.9837 0 0 12.9837 0 29C0 45.0163 12.9837 58 29 58ZM19.5004 24C21.4334 24 23.0004 22.433 23.0004 20.5C23.0004 18.567 21.4334 17 19.5004 17C17.5674 17 16.0004 18.567 16.0004 20.5C16.0004 22.433 17.5674 24 19.5004 24ZM38.5004 24C40.4334 24 42.0004 22.433 42.0004 20.5C42.0004 18.567 40.4334 17 38.5004 17C36.5674 17 35.0004 18.567 35.0004 20.5C35.0004 22.433 36.5674 24 38.5004 24ZM43.3946 32.304C44.1948 32.5184 44.6697 33.3409 44.4552 34.1411C43.5437 37.5432 41.5349 40.5495 38.7406 42.6937C35.9463 44.8378 32.5226 46 29.0004 46C25.4783 46 22.0546 44.8378 19.2603 42.6937C16.4659 40.5495 14.4572 37.5432 13.5456 34.1411C13.3312 33.3409 13.8061 32.5184 14.6063 32.304C15.4065 32.0896 16.229 32.5644 16.4434 33.3646C17.1841 36.1289 18.8162 38.5715 21.0865 40.3136C23.3569 42.0557 26.1387 43 29.0004 43C31.8622 43 34.644 42.0557 36.9143 40.3136C39.1847 38.5715 40.8168 36.1289 41.5575 33.3646C41.7719 32.5644 42.5944 32.0896 43.3946 32.304Z" fill="#9ADBD0"/>
</svg>
