<svg width="64" height="64" viewBox="0 0 64 64" fill="none" xmlns="http://www.w3.org/2000/svg">
<mask id="mask0" mask-type="alpha" maskUnits="userSpaceOnUse" x="0" y="0" width="64" height="64">
<circle cx="32" cy="32" r="32" fill="#6E84FE"/>
</mask>
<g mask="url(#mask0)">
<circle cx="32" cy="32" r="32" fill="#6E84FE"/>
<path d="M6.50392 77.1871L12.189 56.4052C12.7175 54.5691 13.5103 53.0918 14.5659 52.0859C15.5905 51.1096 16.9401 50.5 18.7872 50.5H45.2128C47.0599 50.5 48.4095 51.1096 49.4341 52.0859C50.4897 53.0918 51.2824 54.5689 51.811 56.405L57.4961 77.1871C57.3799 79.9638 54.6894 82.5 50.9574 82.5H13.0426C9.31056 82.5 6.62014 79.9638 6.50392 77.1871Z" stroke="white" stroke-width="3"/>
</g>
<circle cx="32" cy="31" r="14.5" stroke="white" stroke-width="3"/>
<path d="M22 29.5C21.1716 29.5 20.5 30.1716 20.5 31C20.5 31.8284 21.1716 32.5 22 32.5V29.5ZM42 32.5C42.8284 32.5 43.5 31.8284 43.5 31C43.5 30.1716 42.8284 29.5 42 29.5V32.5ZM37 31L35.6584 31.6708L36.0729 32.5H37V31ZM27 31L28.3416 30.3292L27.9271 29.5H27V31ZM30 37L28.6584 37.6708C28.9297 38.2135 29.5012 38.5392 30.1063 38.4962C30.7115 38.4532 31.2312 38.0499 31.423 37.4743L30 37ZM34 25L35.3416 24.3292C35.0703 23.7865 34.4988 23.4608 33.8937 23.5038C33.2885 23.5468 32.7688 23.9501 32.577 24.5257L34 25ZM37 32.5H42V29.5H37V32.5ZM22 32.5H27V29.5H22V32.5ZM25.6584 31.6708L28.6584 37.6708L31.3416 36.3292L28.3416 30.3292L25.6584 31.6708ZM31.423 37.4743L35.423 25.4743L32.577 24.5257L28.577 36.5257L31.423 37.4743ZM32.6584 25.6708L35.6584 31.6708L38.3416 30.3292L35.3416 24.3292L32.6584 25.6708Z" fill="white"/>
</svg>
