<svg width="30" height="28" viewBox="0 0 30 28" fill="none" xmlns="http://www.w3.org/2000/svg">
<path d="M19.9077 3.94291C17.6804 0.0190297 12.0974 0.0190321 9.87011 3.94291L1.77935 18.1967C-0.428673 22.0867 2.31445 27 6.79813 27H22.9797C27.4633 27 30.2064 22.0867 27.9984 18.1967L19.9077 3.94291Z" stroke="#FBF9FA" stroke-width="2"/>
<path d="M14.8989 18.5625C14.4444 18.5625 14.1971 18.2891 14.157 17.7422L13.5756 9.7981C13.5489 9.35196 13.6558 8.97778 13.8964 8.67556C14.1504 8.37334 14.4778 8.22223 14.8789 8.22223C15.2799 8.22223 15.6073 8.37334 15.8613 8.67556C16.1153 8.97778 16.2222 9.35196 16.1821 9.7981L15.6207 17.7422C15.5806 18.2891 15.34 18.5625 14.8989 18.5625ZM14.7585 23.3333C14.3709 23.3333 14.0702 23.2254 13.8563 23.0095C13.6558 22.7793 13.5555 22.4555 13.5555 22.0381V21.6711C13.5555 21.2538 13.6558 20.9372 13.8563 20.7213C14.0702 20.491 14.3709 20.3759 14.7585 20.3759H15.0192C15.4068 20.3759 15.7009 20.491 15.9014 20.7213C16.1153 20.9372 16.2222 21.2538 16.2222 21.6711V22.0381C16.2222 22.4555 16.1153 22.7793 15.9014 23.0095C15.7009 23.2254 15.4068 23.3333 15.0192 23.3333H14.7585Z" fill="#FBF9FA"/>
</svg>
