<svg width="48" height="48" viewBox="0 0 48 48" fill="none" xmlns="http://www.w3.org/2000/svg">
<circle cx="24" cy="24" r="24" fill="#9ADBD0"/>
<path d="M21 39H27" stroke="#FBF9FA" stroke-width="3" stroke-linecap="round"/>
<path d="M9 16L12.4641 18" stroke="#FBF9FA" stroke-width="3" stroke-linecap="round"/>
<path d="M16.7319 8.26953L18.7319 11.7336" stroke="#FBF9FA" stroke-width="3" stroke-linecap="round"/>
<path d="M38.7319 15.7305L35.2678 17.7305" stroke="#FBF9FA" stroke-width="3" stroke-linecap="round"/>
<path d="M31 8L29 11.4641" stroke="#FBF9FA" stroke-width="3" stroke-linecap="round"/>
<path d="M20 35H28" stroke="#FBF9FA" stroke-width="3" stroke-linecap="round"/>
<path d="M26.6667 34C26.6667 32.9143 25.8456 30.184 27.5556 29.4762C29.2655 28.7684 30.1829 28.3947 31.0554 26.7635C31.9278 25.1322 32.2074 23.2491 31.8463 21.4351C31.4852 19.621 30.5059 17.9881 29.0751 16.8147C27.6444 15.6413 25.8508 15 24 15C22.1492 15 20.3556 15.6413 18.9249 16.8147C17.4941 17.9881 16.5148 19.621 16.1537 21.4351C15.7926 23.2491 16.0722 25.1322 16.9446 26.7635C17.8171 28.3947 18.7345 28.7684 20.4444 29.4762C21.8667 30.2 21.3333 33.0952 21.3333 34" stroke="#FBF9FA" stroke-width="3" stroke-linecap="round"/>
</svg>
