<svg width="48" height="48" viewBox="0 0 48 48" fill="none" xmlns="http://www.w3.org/2000/svg">
<circle cx="24" cy="24" r="24" fill="#FDAF54"/>
<path d="M22.5 36C22.5 36.8284 23.1716 37.5 24 37.5C24.8284 37.5 25.5 36.8284 25.5 36L22.5 36ZM25.0607 10.9393C24.4749 10.3536 23.5251 10.3536 22.9393 10.9393L13.3934 20.4853C12.8076 21.0711 12.8076 22.0208 13.3934 22.6066C13.9792 23.1924 14.9289 23.1924 15.5147 22.6066L24 14.1213L32.4853 22.6066C33.0711 23.1924 34.0208 23.1924 34.6066 22.6066C35.1924 22.0208 35.1924 21.0711 34.6066 20.4853L25.0607 10.9393ZM25.5 36L25.5 12L22.5 12L22.5 36L25.5 36Z" fill="#FBF9FA"/>
</svg>

