<svg width="64" height="64" viewBox="0 0 64 64" fill="none" xmlns="http://www.w3.org/2000/svg">
<circle cx="32" cy="32" r="32" fill="#6E84FE"/>
<rect x="9" y="36" width="8" height="8" rx="2" transform="rotate(-90 9 36)" fill="white"/>
<rect x="28" y="36" width="8" height="8" rx="2" transform="rotate(-90 28 36)" fill="white"/>
<path fill-rule="evenodd" clip-rule="evenodd" d="M39.9018 31.9509C39.9018 36.3421 36.3421 39.9018 31.9509 39.9018C27.5597 39.9018 24 36.3421 24 31.9509C24 27.5597 27.5597 24 31.9509 24C36.3421 24 39.9018 27.5597 39.9018 31.9509ZM38.6361 40.6252C36.7866 42.0527 34.4679 42.9018 31.9509 42.9018C25.9029 42.9018 21 37.9989 21 31.9509C21 25.9029 25.9029 21 31.9509 21C37.9989 21 42.9018 25.9029 42.9018 31.9509C42.9018 34.4679 42.0527 36.7866 40.6252 38.6361C40.783 38.7083 40.9308 38.8094 41.0607 38.9393L48.0607 45.9393C48.6464 46.5251 48.6464 47.4749 48.0607 48.0607C47.4749 48.6464 46.5251 48.6464 45.9393 48.0607L38.9393 41.0607C38.8094 40.9308 38.7083 40.783 38.6361 40.6252Z" fill="white"/>
<circle cx="51" cy="32" r="4" transform="rotate(-90 51 32)" fill="white"/>
</svg>
