<svg width="74" height="92" viewBox="0 0 74 92" fill="none" xmlns="http://www.w3.org/2000/svg">
<path fill-rule="evenodd" clip-rule="evenodd" d="M11 36.4383C11 22.4916 22.7934 11 36.8295 11C50.8655 11 62.6589 22.4916 62.6589 36.4383C62.6589 42.8956 60.6536 48.5556 57.1098 53.0885L36.8295 77.5622L28.7831 67.852C26.8449 65.5131 23.3777 65.1883 21.0388 67.1264C18.6999 69.0645 18.375 72.5318 20.3132 74.8706L32.5945 89.6915C33.6394 90.9524 35.1918 91.6821 36.8295 91.6821C38.4671 91.6821 40.0195 90.9524 41.0644 89.6915L65.6271 60.0498C65.6573 60.0134 65.6871 59.9765 65.7163 59.9393C70.8601 53.395 73.6589 45.3033 73.6589 36.4383C73.6589 16.2114 56.7335 0 36.8295 0C16.9254 0 0 16.2114 0 36.4383C0 39.4758 2.46243 41.9383 5.5 41.9383C8.53757 41.9383 11 39.4758 11 36.4383ZM37.1195 44.9702C43.0473 44.9702 47.8528 40.1625 47.8528 34.2319C47.8528 28.3013 43.0473 23.4937 37.1195 23.4937C31.1917 23.4937 26.3863 28.3013 26.3863 34.2319C26.3863 40.1625 31.1917 44.9702 37.1195 44.9702Z" fill="#FD5C54"/>
</svg>
