<svg width="9" height="14" viewBox="0 0 9 14" fill="none" xmlns="http://www.w3.org/2000/svg">
<path d="M2.56291 7.98514C2.56291 7.66892 2.66611 7.40743 2.87252 7.20068C3.07892 6.98176 3.33996 6.8723 3.65563 6.8723C4.45695 6.8723 5.10044 6.68378 5.58609 6.30676C6.07174 5.92973 6.31457 5.34595 6.31457 4.5554C6.31457 3.9473 6.09603 3.44257 5.65894 3.04122C5.22185 2.63986 4.6755 2.43919 4.01987 2.43919C3.3521 2.43919 2.76325 2.66419 2.25331 3.11419C1.96192 3.38176 1.65839 3.51554 1.34272 3.51554C1.11203 3.51554 0.905629 3.44257 0.72351 3.29662C0.407837 3.05338 0.25 2.76757 0.25 2.43919C0.25 2.15946 0.365342 1.90405 0.596026 1.67297C1.03311 1.22297 1.54305 0.87635 2.12583 0.633107C2.72075 0.377702 3.3521 0.25 4.01987 0.25C4.84547 0.25 5.59823 0.438513 6.27815 0.815539C6.95806 1.19257 7.49834 1.71554 7.89901 2.38446C8.29967 3.04122 8.5 3.76486 8.5 4.5554C8.5 5.72297 8.16612 6.6473 7.49834 7.32838C6.83057 8.00946 5.94426 8.43513 4.8394 8.6054C4.7787 8.62973 4.74834 8.66014 4.74834 8.69662V9.37162C4.74834 9.68784 4.64514 9.95541 4.43874 10.1743C4.23234 10.3811 3.9713 10.4845 3.65563 10.4845C3.33996 10.4845 3.07892 10.3811 2.87252 10.1743C2.66611 9.95541 2.56291 9.68784 2.56291 9.37162V7.98514ZM3.56457 13.75C3.21247 13.75 2.93929 13.6588 2.74503 13.4764C2.56291 13.2818 2.47185 13.0081 2.47185 12.6554V12.3453C2.47185 11.9926 2.56291 11.725 2.74503 11.5426C2.93929 11.348 3.21247 11.2507 3.56457 11.2507H3.80132C4.15342 11.2507 4.42053 11.348 4.60265 11.5426C4.79691 11.725 4.89404 11.9926 4.89404 12.3453V12.6554C4.89404 13.0081 4.79691 13.2818 4.60265 13.4764C4.42053 13.6588 4.15342 13.75 3.80132 13.75H3.56457Z" fill="white"/>
</svg>
