<svg viewBox="0 0 146 106" fill="none" xmlns="http://www.w3.org/2000/svg"><rect x="1.5" y="1.5" width="142.292" height="102.745" rx="17.5" fill="#1E416A" stroke="#FDAF54" stroke-width="3"/><rect x="47" y="15" width="52" height="78" rx="3" stroke="#FBF9FA" stroke-width="2"/><rect x="55" y="23" width="36" height="20" rx="3" stroke="#FBF9FA" stroke-width="2"/><rect x="54" y="78" width="8" height="8" rx="2" fill="#FBF9FA"/><rect x="54" y="68" width="8" height="8" rx="2" fill="#FBF9FA"/><rect x="54" y="58" width="8" height="8" rx="2" fill="#FBF9FA"/><rect x="54" y="48" width="8" height="8" rx="2" fill="#FBF9FA"/><rect x="64" y="78" width="8" height="8" rx="2" fill="#FBF9FA"/><rect x="64" y="68" width="8" height="8" rx="2" fill="#FBF9FA"/><rect x="64" y="58" width="8" height="8" rx="2" fill="#FBF9FA"/><rect x="64" y="48" width="8" height="8" rx="2" fill="#FBF9FA"/><rect x="74" y="78" width="8" height="8" rx="2" fill="#FBF9FA"/><rect x="74" y="68" width="8" height="8" rx="2" fill="#FBF9FA"/><rect x="74" y="58" width="8" height="8" rx="2" fill="#FBF9FA"/><rect x="74" y="48" width="8" height="8" rx="2" fill="#FBF9FA"/><rect x="84" y="68" width="8" height="18" rx="2" fill="#6E84FE"/><rect x="85" y="59" width="6" height="6" rx="1" stroke="#FBF9FA" stroke-width="2"/><rect x="85" y="49" width="6" height="6" rx="1" stroke="#FBF9FA" stroke-width="2"/><path d="M70.22 28.2c.233 0 .43.084.588.252.159.159.238.36.238.602v8.092a.816.816 0 01-.266.616.95.95 0 01-.658.238.9.9 0 01-.644-.238.838.838 0 01-.252-.616V30.51l-.868.532a.856.856 0 01-.448.126.8.8 0 01-.602-.266.862.862 0 01-.238-.588c0-.15.037-.29.112-.42a.923.923 0 01.322-.308l2.114-1.26a1.28 1.28 0 01.602-.126zm8.18 8.26a.76.76 0 01.56.224.76.76 0 01.224.56.743.743 0 01-.224.546.787.787 0 01-.56.21h-4.76c-.243 0-.434-.075-.574-.224a.806.806 0 01-.21-.574c0-.233.084-.439.252-.616l3.052-3.262c.345-.373.616-.747.812-1.12.205-.383.308-.733.308-1.05 0-.42-.15-.784-.448-1.092-.3-.308-.644-.462-1.036-.462-.271 0-.546.093-.826.28-.271.177-.518.415-.742.714a.773.773 0 01-.644.336.846.846 0 01-.574-.238c-.168-.159-.252-.336-.252-.532 0-.14.046-.28.14-.42a2.98 2.98 0 01.42-.504c.354-.355.765-.64 1.232-.854.466-.215.914-.322 1.344-.322.616 0 1.157.13 1.624.392.466.261.826.62 1.078 1.078.252.457.378.975.378 1.554 0 .57-.154 1.157-.462 1.764a7.368 7.368 0 01-1.218 1.722l-1.778 1.89H78.4zm5.35-4.676c.513.019.966.168 1.358.448.4.28.709.649.923 1.106.215.448.322.929.322 1.442 0 .681-.153 1.279-.462 1.792a3.033 3.033 0 01-1.302 1.162c-.56.27-1.213.406-1.96.406-.336 0-.672-.042-1.008-.126a3.619 3.619 0 01-.881-.336c-.346-.187-.518-.439-.518-.756 0-.224.079-.43.238-.616a.728.728 0 01.574-.28c.186 0 .387.07.601.21.402.308.845.462 1.33.462.29 0 .565-.07.826-.21a1.7 1.7 0 00.63-.63c.168-.28.252-.597.252-.952 0-.504-.154-.896-.462-1.176a1.538 1.538 0 00-1.091-.42c-.187 0-.35.019-.49.056-.14.037-.224.06-.252.07a2.134 2.134 0 01-.603.112.615.615 0 01-.49-.21.837.837 0 01-.181-.546c0-.13.023-.247.07-.35.046-.103.125-.215.237-.336l2.17-2.366H80.81a.76.76 0 01-.56-.224.76.76 0 01-.224-.56c0-.215.075-.392.224-.532a.76.76 0 01.56-.224h4.285c.28 0 .494.08.644.238.149.15.224.35.224.602 0 .224-.112.448-.337.672l-1.876 2.072z" fill="#FBF9FA"/></svg>
