<svg width="48" height="48" viewBox="0 0 48 48" fill="none" xmlns="http://www.w3.org/2000/svg">
<circle cx="24" cy="24" r="24" fill="#6E84FE"/>
<path fill-rule="evenodd" clip-rule="evenodd" d="M20.1313 17.1034C19.2499 17.8169 18.5 19.0897 18.5 21.5V21.5258V21.5516V21.5774V21.6032V21.629V21.6548V21.6807V21.7065V21.7324V21.7582V21.7841V21.8099V21.8358V21.8617V21.8876V21.9135V21.9394V21.9653V21.9912V22.0171V22.043V22.069V22.0949V22.1208V22.1468V22.1727V22.1987V22.2246V22.2506V22.2766V22.3025V22.3285V22.3545V22.3804V22.4064V22.4324V22.4584V22.4844V22.5104V22.5364V22.5624V22.5884V22.6144V22.6404V22.6664V22.6924V22.7184V22.7444V22.7705V22.7965V22.8225V22.8485V22.8745V22.9006V22.9266V22.9526V22.9786V23.0046V23.0307V23.0567V23.0827V23.1087V23.1347V23.1607V23.1868V23.2128V23.2388V23.2648V23.2908V23.3168V23.3428V23.3688V23.3948V23.4208V23.4468V23.4728V23.4988V23.5248V23.5508V23.5768V23.6027V23.6287V23.6547V23.6807V23.7066V23.7326V23.7585V23.7845V23.8104V23.8364V23.8623V23.8882V23.9142V23.9401V23.966V23.9919V24.0178V24.0437V24.0696V24.0955V24.1214V24.1473V24.1731V24.199V24.2248V24.2507V24.2765V24.3023V24.3282V24.354V24.3798V24.4056V24.4314V24.4572V24.4829V24.5087V24.5345V24.5602V24.586V24.6117V24.6374V24.6631V24.6888V24.7145V24.7402V24.7659V24.7915V24.8172V24.8428V24.8685V24.8941V24.9197V24.9453V24.9709V24.9965V25.022V25.0476V25.0731V25.0986V25.1242V25.1497V25.1751V25.2006V25.2261V25.2515V25.277V25.3024V25.3278V25.3532V25.3786V25.404V25.4294V25.4547V25.48V25.5053V25.5307V25.5559V25.5812V25.6065V25.6317V25.6569V25.6822V25.7074V25.7325V25.7577V25.7828V25.808V25.8331V25.8582V25.8833V25.9084V25.9334V25.9584V25.9835V26.0085V26.0334V26.0584V26.0834V26.1083V26.1332V26.1581V26.183V26.2078V26.2327V26.2575V26.2823V26.3071V26.3318V26.3566V26.3813V26.406V26.4307V26.4553V26.48V26.5046V26.5292V26.5538V26.5783V26.6029V26.6274V26.6519V26.6764V26.7008V26.7253V26.7497V26.7741V26.7984V26.8228V26.8471V26.8714V26.8957V26.92V26.9442V26.9684V26.9926V27.0167V27.0409V27.065V27.0891V27.1132V27.1372V27.1612V27.1852V27.2092V27.2332V27.2571V27.281V27.3048V27.3287V27.3525V27.3763V27.4001V27.4238V27.4475V27.4712V27.4949V27.5185V27.5422V27.5657V27.5893V27.6128V27.6363V27.6598V27.6833V27.7067V27.7301V27.7535V27.7768V27.8001V27.8234V27.8467V27.8699V27.8931V27.9163V27.9394V27.9625V27.9856V28.0086V28.0317V28.0546V28.0776V28.1005V28.1234V28.1463V28.1692V28.192V28.2147V28.2375V28.2602V28.2829V28.3055V28.3282V28.3508V28.3733V28.3958V28.4183V28.4408V28.4632V28.4856V28.508V28.5303V28.5526V28.5749V28.5971V28.6193V28.6415V28.6636V28.6857V28.7078V28.7298V28.7518V28.7738V28.7957V28.8176V28.8394V28.8613V28.883V28.9048V28.9265V28.9482V28.9698V28.9914V29.013V29.0345V29.056V29.0775V29.0989V29.1203V29.1417V29.163V29.1842V29.2055V29.2267V29.2478V29.269V29.2901V29.3111V29.3321V29.3531V29.374V29.3949V29.4158V29.4366V29.4574V29.4781V29.4988V29.5195V29.5401V29.5607V29.5812V29.6017V29.6222V29.6426V29.6629V29.6833V29.7036V29.7238V29.744V29.7642V29.7843V29.8044V29.8245V29.8445V29.8644V29.8844V29.9042V29.9241V29.9439V29.9636V29.9833V30.003V30.0226V30.0422V30.0617V30.0812V30.1006V30.12V30.1394V30.1587V30.1779V30.1972V30.2163V30.2355V30.2546V30.2736V30.2926V30.3115V30.3304V30.3493V30.3681V30.3869V30.4056V30.4243V30.4429V30.4615V30.48V30.4985V30.5169V30.5353V30.5537V30.572V30.5902V30.6084V30.6266V30.6447V30.6627V30.6807V30.6987V30.7166V30.7345V30.7523V30.77V30.7877V30.8054V30.823V30.8406V30.8581V30.8755V30.893V30.9103V30.9276V30.9449V30.9621V30.9793V30.9964V31.0134V31.0304V31.0474V31.0643V31.0811V31.0979V31.1147V31.1314V31.148V31.1646V31.1811V31.1976V31.214V31.2304V31.2467V31.263V31.2792V31.2954V31.3115V31.3275V31.3435V31.3595V31.3754V31.3912V31.407V31.4227V31.4384V31.454V31.4695V31.485V31.5005V31.5159V31.5312V31.5465V31.5617V31.5769V31.592V31.607V31.622V31.637V31.6519V31.6667V31.6814V31.6962V31.7108V31.7254V31.7399V31.7544V31.7688V31.7832V31.7975V31.8117V31.8259V31.84V31.8541V31.8681V31.882V31.8959V31.9097V31.9235V31.9372V31.9509V31.9644V31.978V31.9914V32.0048V32.0182V32.0315V32.0447V32.0578V32.0709V32.084V32.0969V32.1098V32.1227V32.1355V32.1482V32.1608V32.1734V32.186V32.1984V32.2108V32.2232V32.2355V32.2477V32.2598V32.2719V32.2839V32.2959V32.3078V32.3196V32.3314V32.3431V32.3547V32.3663V32.3778V32.3892V32.4006V32.4119V32.4232V32.4343V32.4455V32.4565V32.4675V32.4784V32.4892V32.5C18.5 33.3284 17.8284 34 17 34C16.1716 34 15.5 33.3284 15.5 32.5V32.4892V32.4784V32.4675V32.4565V32.4455V32.4343V32.4232V32.4119V32.4006V32.3892V32.3778V32.3663V32.3547V32.3431V32.3314V32.3196V32.3078V32.2959V32.2839V32.2719V32.2598V32.2477V32.2355V32.2232V32.2108V32.1984V32.186V32.1734V32.1608V32.1482V32.1355V32.1227V32.1098V32.0969V32.084V32.0709V32.0578V32.0447V32.0315V32.0182V32.0048V31.9914V31.978V31.9644V31.9509V31.9372V31.9235V31.9097V31.8959V31.882V31.8681V31.8541V31.84V31.8259V31.8117V31.7975V31.7832V31.7688V31.7544V31.7399V31.7254V31.7108V31.6962V31.6814V31.6667V31.6519V31.637V31.622V31.607V31.592V31.5769V31.5617V31.5465V31.5312V31.5159V31.5005V31.485V31.4695V31.454V31.4384V31.4227V31.407V31.3912V31.3754V31.3595V31.3435V31.3275V31.3115V31.2954V31.2792V31.263V31.2467V31.2304V31.214V31.1976V31.1811V31.1646V31.148V31.1314V31.1147V31.0979V31.0811V31.0643V31.0474V31.0304V31.0134V30.9964V30.9793V30.9621V30.9449V30.9276V30.9103V30.893V30.8755V30.8581V30.8406V30.823V30.8054V30.7877V30.77V30.7523V30.7345V30.7166V30.6987V30.6807V30.6627V30.6447V30.6266V30.6084V30.5902V30.572V30.5537V30.5353V30.5169V30.4985V30.48V30.4615V30.4429V30.4243V30.4056V30.3869V30.3681V30.3493V30.3304V30.3115V30.2926V30.2736V30.2546V30.2355V30.2163V30.1972V30.1779V30.1587V30.1394V30.12V30.1006V30.0812V30.0617V30.0422V30.0226V30.003V29.9833V29.9636V29.9439V29.9241V29.9042V29.8844V29.8644V29.8445V29.8245V29.8044V29.7843V29.7642V29.744V29.7238V29.7036V29.6833V29.6629V29.6426V29.6222V29.6017V29.5812V29.5607V29.5401V29.5195V29.4988V29.4781V29.4574V29.4366V29.4158V29.3949V29.374V29.3531V29.3321V29.3111V29.2901V29.269V29.2478V29.2267V29.2055V29.1842V29.163V29.1417V29.1203V29.0989V29.0775V29.056V29.0345V29.013V28.9914V28.9698V28.9482V28.9265V28.9048V28.883V28.8613V28.8394V28.8176V28.7957V28.7738V28.7518V28.7298V28.7078V28.6857V28.6636V28.6415V28.6193V28.5971V28.5749V28.5526V28.5303V28.508V28.4856V28.4632V28.4408V28.4183V28.3958V28.3733V28.3508V28.3282V28.3055V28.2829V28.2602V28.2375V28.2147V28.192V28.1692V28.1463V28.1234V28.1005V28.0776V28.0546V28.0317V28.0086V27.9856V27.9625V27.9394V27.9163V27.8931V27.8699V27.8467V27.8234V27.8001V27.7768V27.7535V27.7301V27.7067V27.6833V27.6598V27.6363V27.6128V27.5893V27.5657V27.5422V27.5185V27.4949V27.4712V27.4475V27.4238V27.4001V27.3763V27.3525V27.3287V27.3048V27.281V27.2571V27.2332V27.2092V27.1852V27.1612V27.1372V27.1132V27.0891V27.065V27.0409V27.0167V26.9926V26.9684V26.9442V26.92V26.8957V26.8714V26.8471V26.8228V26.7984V26.7741V26.7497V26.7253V26.7008V26.6764V26.6519V26.6274V26.6029V26.5783V26.5538V26.5292V26.5046V26.48V26.4553V26.4307V26.406V26.3813V26.3566V26.3318V26.3071V26.2823V26.2575V26.2327V26.2078V26.183V26.1581V26.1332V26.1083V26.0834V26.0584V26.0334V26.0085V25.9835V25.9584V25.9334V25.9084V25.8833V25.8582V25.8331V25.808V25.7828V25.7577V25.7325V25.7074V25.6822V25.6569V25.6317V25.6065V25.5812V25.5559V25.5307V25.5053V25.48V25.4547V25.4294V25.404V25.3786V25.3532V25.3278V25.3024V25.277V25.2515V25.2261V25.2006V25.1751V25.1497V25.1242V25.0986V25.0731V25.0476V25.022V24.9965V24.9709V24.9453V24.9197V24.8941V24.8685V24.8428V24.8172V24.7915V24.7659V24.7402V24.7145V24.6888V24.6631V24.6374V24.6117V24.586V24.5602V24.5345V24.5087V24.4829V24.4572V24.4314V24.4056V24.3798V24.354V24.3282V24.3023V24.2765V24.2507V24.2248V24.199V24.1731V24.1473V24.1214V24.0955V24.0696V24.0437V24.0178V23.9919V23.966V23.9401V23.9142V23.8882V23.8623V23.8364V23.8104V23.7845V23.7585V23.7326V23.7066V23.6807V23.6547V23.6287V23.6027V23.5768V23.5508V23.5248V23.4988V23.4728V23.4468V23.4208V23.3948V23.3688V23.3428V23.3168V23.2908V23.2648V23.2388V23.2128V23.1868V23.1607V23.1347V23.1087V23.0827V23.0567V23.0307V23.0046V22.9786V22.9526V22.9266V22.9006V22.8745V22.8485V22.8225V22.7965V22.7705V22.7444V22.7184V22.6924V22.6664V22.6404V22.6144V22.5884V22.5624V22.5364V22.5104V22.4844V22.4584V22.4324V22.4064V22.3804V22.3545V22.3285V22.3025V22.2766V22.2506V22.2246V22.1987V22.1727V22.1468V22.1208V22.0949V22.069V22.043V22.0171V21.9912V21.9653V21.9394V21.9135V21.8876V21.8617V21.8358V21.8099V21.7841V21.7582V21.7324V21.7065V21.6807V21.6548V21.629V21.6032V21.5774V21.5516V21.5258V21.5C15.5 18.4103 16.5001 16.1831 18.2437 14.7716C19.9282 13.408 22.0715 13 24 13C25.9285 13 28.0718 13.408 29.7563 14.7716C31.4999 16.1831 32.5 18.4103 32.5 21.5V21.5258V21.5516V21.5774V21.6032V21.629V21.6548V21.6807V21.7065V21.7324V21.7582V21.7841V21.8099V21.8358V21.8617V21.8876V21.9135V21.9394V21.9653V21.9912V22.0171V22.043V22.069V22.0949V22.1208V22.1468V22.1727V22.1987V22.2246V22.2506V22.2766V22.3025V22.3285V22.3545V22.3804V22.4064V22.4324V22.4584V22.4844V22.5104V22.5364V22.5624V22.5884V22.6144V22.6404V22.6664V22.6924V22.7184V22.7444V22.7705V22.7965V22.8225V22.8485V22.8745V22.9006V22.9266V22.9526V22.9786V23.0046V23.0307V23.0567V23.0827V23.1087V23.1347V23.1607V23.1868V23.2128V23.2388V23.2648V23.2908V23.3168V23.3428V23.3688V23.3948V23.4208V23.4468V23.4728V23.4988V23.5248V23.5508V23.5768V23.6027V23.6287V23.6547V23.6807V23.7066V23.7326V23.7585V23.7845V23.8104V23.8364V23.8623V23.8882V23.9142V23.9401V23.966V23.9919V24.0178V24.0437V24.0696V24.0955V24.1214V24.1473V24.1731V24.199V24.2248V24.2507V24.2765V24.3023V24.3282V24.354V24.3798V24.4056V24.4314V24.4572V24.4829V24.5087V24.5345V24.5602V24.586V24.6117V24.6374V24.6631V24.6888V24.7145V24.7402V24.7659V24.7915V24.8172V24.8428V24.8685V24.8941V24.9197V24.9453V24.9709V24.9965V25.022V25.0476V25.0731V25.0986V25.1242V25.1497V25.1751V25.2006V25.2261V25.2515V25.277V25.3024V25.3278V25.3532V25.3786V25.404V25.4294V25.4547V25.48V25.5053V25.5307V25.5559V25.5812V25.6065V25.6317V25.6569V25.6822V25.7074V25.7325V25.7577V25.7828V25.808V25.8331V25.8582V25.8833V25.9084V25.9334V25.9584V25.9835V26.0085V26.0334V26.0584V26.0834V26.1083V26.1332V26.1581V26.183V26.2078V26.2327V26.2575V26.2823V26.3071V26.3318V26.3566V26.3813V26.406V26.4307V26.4553V26.48V26.5046V26.5292V26.5538V26.5783V26.6029V26.6274V26.6519V26.6764V26.7008V26.7253V26.7497V26.7741V26.7984V26.8228V26.8471V26.8714V26.8957V26.92V26.9442V26.9684V26.9926V27.0167V27.0409V27.065V27.0891V27.1132V27.1372V27.1612V27.1852V27.2092V27.2332V27.2571V27.281V27.3048V27.3287V27.3525V27.3763V27.4001V27.4238V27.4475V27.4712V27.4949V27.5185V27.5422V27.5657V27.5893V27.6128V27.6363V27.6598V27.6833V27.7067V27.7301V27.7535V27.7768V27.8001V27.8234V27.8467V27.8699V27.8931V27.9163V27.9394V27.9625V27.9856V28.0086V28.0317V28.0546V28.0776V28.1005V28.1234V28.1463V28.1692V28.192V28.2147V28.2375V28.2602V28.2829V28.3055V28.3282V28.3508V28.3733V28.3958V28.4183V28.4408V28.4632V28.4856V28.508V28.5303V28.5526V28.5749V28.5971V28.6193V28.6415V28.6636V28.6857V28.7078V28.7298V28.7518V28.7738V28.7957V28.8176V28.8394V28.8613V28.883V28.9048V28.9265V28.9482V28.9698V28.9914V29.013V29.0345V29.056V29.0775V29.0989V29.1203V29.1417V29.163V29.1842V29.2055V29.2267V29.2478V29.269V29.2901V29.3111V29.3321V29.3531V29.374V29.3949V29.4158V29.4366V29.4574V29.4781V29.4988V29.5195V29.5401V29.5607V29.5812V29.6017V29.6222V29.6426V29.6629V29.6833V29.7036V29.7238V29.744V29.7642V29.7843V29.8044V29.8245V29.8445V29.8644V29.8844V29.9042V29.9241V29.9439V29.9636V29.9833V30.003V30.0226V30.0422V30.0617V30.0812V30.1006V30.12V30.1394V30.1587V30.1779V30.1972V30.2163V30.2355V30.2546V30.2736V30.2926V30.3115V30.3304V30.3493V30.3681V30.3869V30.4056V30.4243V30.4429V30.4615V30.48V30.4985V30.5169V30.5353V30.5537V30.572V30.5902V30.6084V30.6266V30.6447V30.6627V30.6807V30.6987V30.7166V30.7345V30.7523V30.77V30.7877V30.8054V30.823V30.8406V30.8581V30.8755V30.893V30.9103V30.9276V30.9449V30.9621V30.9793V30.9964V31.0134V31.0304V31.0474V31.0643V31.0811V31.0979V31.1147V31.1314V31.148V31.1646V31.1811V31.1976V31.214V31.2304V31.2467V31.263V31.2792V31.2954V31.3115V31.3275V31.3435V31.3595V31.3754V31.3912V31.407V31.4227V31.4384V31.454V31.4695V31.485V31.5005V31.5159V31.5312V31.5465V31.5617V31.5769V31.592V31.607V31.622V31.637V31.6519V31.6667V31.6814V31.6962V31.7108V31.7254V31.7399V31.7544V31.7688V31.7832V31.7975V31.8117V31.8259V31.84V31.8541V31.8681V31.882V31.8959V31.9097V31.9235V31.9372V31.9509V31.9644V31.978V31.9914V32.0048V32.0182V32.0315V32.0447V32.0578V32.0709V32.084V32.0969V32.1098V32.1227V32.1355V32.1482V32.1608V32.1734V32.186V32.1984V32.2108V32.2232V32.2355V32.2477V32.2598V32.2719V32.2839V32.2959V32.3078V32.3196V32.3314V32.3431V32.3547V32.3663V32.3778V32.3892V32.4006V32.4119V32.4232V32.4343V32.4455V32.4565V32.4675V32.4784V32.4892V32.5C32.5 33.3284 31.8284 34 31 34C30.1716 34 29.5 33.3284 29.5 32.5V32.4892V32.4784V32.4675V32.4565V32.4455V32.4343V32.4232V32.4119V32.4006V32.3892V32.3778V32.3663V32.3547V32.3431V32.3314V32.3196V32.3078V32.2959V32.2839V32.2719V32.2598V32.2477V32.2355V32.2232V32.2108V32.1984V32.186V32.1734V32.1608V32.1482V32.1355V32.1227V32.1098V32.0969V32.084V32.0709V32.0578V32.0447V32.0315V32.0182V32.0048V31.9914V31.978V31.9644V31.9509V31.9372V31.9235V31.9097V31.8959V31.882V31.8681V31.8541V31.84V31.8259V31.8117V31.7975V31.7832V31.7688V31.7544V31.7399V31.7254V31.7108V31.6962V31.6814V31.6667V31.6519V31.637V31.622V31.607V31.592V31.5769V31.5617V31.5465V31.5312V31.5159V31.5005V31.485V31.4695V31.454V31.4384V31.4227V31.407V31.3912V31.3754V31.3595V31.3435V31.3275V31.3115V31.2954V31.2792V31.263V31.2467V31.2304V31.214V31.1976V31.1811V31.1646V31.148V31.1314V31.1147V31.0979V31.0811V31.0643V31.0474V31.0304V31.0134V30.9964V30.9793V30.9621V30.9449V30.9276V30.9103V30.893V30.8755V30.8581V30.8406V30.823V30.8054V30.7877V30.77V30.7523V30.7345V30.7166V30.6987V30.6807V30.6627V30.6447V30.6266V30.6084V30.5902V30.572V30.5537V30.5353V30.5169V30.4985V30.48V30.4615V30.4429V30.4243V30.4056V30.3869V30.3681V30.3493V30.3304V30.3115V30.2926V30.2736V30.2546V30.2355V30.2163V30.1972V30.1779V30.1587V30.1394V30.12V30.1006V30.0812V30.0617V30.0422V30.0226V30.003V29.9833V29.9636V29.9439V29.9241V29.9042V29.8844V29.8644V29.8445V29.8245V29.8044V29.7843V29.7642V29.744V29.7238V29.7036V29.6833V29.6629V29.6426V29.6222V29.6017V29.5812V29.5607V29.5401V29.5195V29.4988V29.4781V29.4574V29.4366V29.4158V29.3949V29.374V29.3531V29.3321V29.3111V29.2901V29.269V29.2478V29.2267V29.2055V29.1842V29.163V29.1417V29.1203V29.0989V29.0775V29.056V29.0345V29.013V28.9914V28.9698V28.9482V28.9265V28.9048V28.883V28.8613V28.8394V28.8176V28.7957V28.7738V28.7518V28.7298V28.7078V28.6857V28.6636V28.6415V28.6193V28.5971V28.5749V28.5526V28.5303V28.508V28.4856V28.4632V28.4408V28.4183V28.3958V28.3733V28.3508V28.3282V28.3055V28.2829V28.2602V28.2375V28.2147V28.192V28.1692V28.1463V28.1234V28.1005V28.0776V28.0546V28.0317V28.0086V27.9856V27.9625V27.9394V27.9163V27.8931V27.8699V27.8467V27.8234V27.8001V27.7768V27.7535V27.7301V27.7067V27.6833V27.6598V27.6363V27.6128V27.5893V27.5657V27.5422V27.5185V27.4949V27.4712V27.4475V27.4238V27.4001V27.3763V27.3525V27.3287V27.3048V27.281V27.2571V27.2332V27.2092V27.1852V27.1612V27.1372V27.1132V27.0891V27.065V27.0409V27.0167V26.9926V26.9684V26.9442V26.92V26.8957V26.8714V26.8471V26.8228V26.7984V26.7741V26.7497V26.7253V26.7008V26.6764V26.6519V26.6274V26.6029V26.5783V26.5538V26.5292V26.5046V26.48V26.4553V26.4307V26.406V26.3813V26.3566V26.3318V26.3071V26.2823V26.2575V26.2327V26.2078V26.183V26.1581V26.1332V26.1083V26.0834V26.0584V26.0334V26.0085V25.9835V25.9584V25.9334V25.9084V25.8833V25.8582V25.8331V25.808V25.7828V25.7577V25.7325V25.7074V25.6822V25.6569V25.6317V25.6065V25.5812V25.5559V25.5307V25.5053V25.48V25.4547V25.4294V25.404V25.3786V25.3532V25.3278V25.3024V25.277V25.2515V25.2261V25.2006V25.1751V25.1497V25.1242V25.0986V25.0731V25.0476V25.022V24.9965V24.9709V24.9453V24.9197V24.8941V24.8685V24.8428V24.8172V24.7915V24.7659V24.7402V24.7145V24.6888V24.6631V24.6374V24.6117V24.586V24.5602V24.5345V24.5087V24.4829V24.4572V24.4314V24.4056V24.3798V24.354V24.3282V24.3023V24.2765V24.2507V24.2248V24.199V24.1731V24.1473V24.1214V24.0955V24.0696V24.0437V24.0178V23.9919V23.966V23.9401V23.9142V23.8882V23.8623V23.8364V23.8104V23.7845V23.7585V23.7326V23.7066V23.6807V23.6547V23.6287V23.6027V23.5768V23.5508V23.5248V23.4988V23.4728V23.4468V23.4208V23.3948V23.3688V23.3428V23.3168V23.2908V23.2648V23.2388V23.2128V23.1868V23.1607V23.1347V23.1087V23.0827V23.0567V23.0307V23.0046V22.9786V22.9526V22.9266V22.9006V22.8745V22.8485V22.8225V22.7965V22.7705V22.7444V22.7184V22.6924V22.6664V22.6404V22.6144V22.5884V22.5624V22.5364V22.5104V22.4844V22.4584V22.4324V22.4064V22.3804V22.3545V22.3285V22.3025V22.2766V22.2506V22.2246V22.1987V22.1727V22.1468V22.1208V22.0949V22.069V22.043V22.0171V21.9912V21.9653V21.9394V21.9135V21.8876V21.8617V21.8358V21.8099V21.7841V21.7582V21.7324V21.7065V21.6807V21.6548V21.629V21.6032V21.5774V21.5516V21.5258V21.5C29.5 19.0897 28.7501 17.8169 27.8687 17.1034C26.9282 16.342 25.5715 16 24 16C22.4285 16 21.0718 16.342 20.1313 17.1034ZM34.5 24C35.3284 24 36 24.6716 36 25.5V32.5C36 33.3284 35.3284 34 34.5 34C33.6716 34 33 33.3284 33 32.5V25.5C33 24.6716 33.6716 24 34.5 24ZM15 25.5C15 24.6716 14.3284 24 13.5 24C12.6716 24 12 24.6716 12 25.5V32.5C12 33.3284 12.6716 34 13.5 34C14.3284 34 15 33.3284 15 32.5V25.5Z" fill="white"/>
</svg>
