<svg width="1920" height="1081" viewBox="0 0 1920 1081" fill="none" xmlns="http://www.w3.org/2000/svg">
<path d="M0 1L276.719 0L1920 1V1081H0V1Z" fill="#6E84FE"/>

<path d="M1920 0H1634.5H0V1002C0 1002 51.5004 963.419 376 965.629C700.5 967.839 993.5 924.48 1399.5 901.277C1805.5 878.074 1920 972.184 1920 972.184L1920 0Z" fill="#9ADBD0"/>

<path d="M0 0H1920V868.091C1920 868.091 1854.06 824.996 1675.99 824.996C1497.92 824.996 1001.39 946 583.826 946C428.128 946 300 890.577 230.5 824.996C161 759.415 0 883.5 0 883.5V0Z" fill="#FBF9FA"/>
</svg>
