<?xml version="1.0" encoding="UTF-8"?>
<svg width="32px" height="22px" viewBox="0 0 32 22" version="1.1" xmlns="http://www.w3.org/2000/svg" xmlns:xlink="http://www.w3.org/1999/xlink">
    <g id="Symbols" stroke="none" stroke-width="1" fill="none" fill-rule="evenodd">
        <g id="Button/Go" transform="translate(-24.000000, -29.000000)" fill="#FFFFFF" fill-rule="nonzero">
            <path d="M33.633,35.944 C33.633,35.5706648 33.5910004,35.188002 33.507,34.796 C33.4229996,34.403998 33.2876676,34.0446683 33.101,33.718 C32.9143324,33.3913317 32.6763348,33.1206677 32.387,32.906 C32.0976652,32.6913323 31.7476687,32.584 31.337,32.584 C30.3663285,32.584 29.6663355,33.1253279 29.237,34.208 C28.8076645,35.2906721 28.593,37.0826542 28.593,39.584 C28.593,40.7786726 28.630333,41.8613285 28.705,42.832 C28.779667,43.8026715 28.914999,44.6286633 29.111,45.31 C29.307001,45.9913367 29.5869982,46.5139982 29.951,46.878 C30.3150018,47.2420018 30.7863304,47.424 31.365,47.424 C31.6076679,47.424 31.8736652,47.3586673 32.163,47.228 C32.4523348,47.0973327 32.7229987,46.9013346 32.975,46.64 C33.2270013,46.3786654 33.4369992,46.0473353 33.605,45.646 C33.7730008,45.2446647 33.857,44.773336 33.857,44.232 L33.857,42.188 L31.197,42.188 L31.197,39.22 L37.721,39.22 L37.721,50 L34.753,50 L34.753,48.152 L34.697,48.152 C34.2116642,48.9360039 33.6283367,49.4913317 32.947,49.818 C32.2656633,50.1446683 31.4490048,50.308 30.497,50.308 C29.2649938,50.308 28.2616705,50.0933355 27.487,49.664 C26.7123295,49.2346645 26.1056689,48.5720045 25.667,47.676 C25.2283311,46.7799955 24.9343341,45.6740066 24.785,44.358 C24.6356659,43.0419934 24.561,41.5160087 24.561,39.78 C24.561,38.0999916 24.6683323,36.6253397 24.883,35.356 C25.0976677,34.0866603 25.4663307,33.0273376 25.989,32.178 C26.5116693,31.3286624 27.202329,30.6893355 28.061,30.26 C28.919671,29.8306645 29.9929936,29.616 31.281,29.616 C33.4836777,29.616 35.0703285,30.1619945 36.041,31.254 C37.0116715,32.3460055 37.497,33.9093232 37.497,35.944 L33.633,35.944 Z M45.512,40.004 C45.512,41.3480067 45.5446663,42.4913286 45.61,43.434 C45.6753337,44.3766714 45.805999,45.1419971 46.002,45.73 C46.198001,46.3180029 46.4779982,46.747332 46.842,47.018 C47.2060018,47.288668 47.6866637,47.424 48.284,47.424 C48.8813363,47.424 49.3619982,47.288668 49.726,47.018 C50.0900018,46.747332 50.369999,46.3180029 50.566,45.73 C50.762001,45.1419971 50.8926663,44.3766714 50.958,43.434 C51.0233337,42.4913286 51.056,41.3480067 51.056,40.004 C51.056,38.6599933 51.0233337,37.521338 50.958,36.588 C50.8926663,35.654662 50.762001,34.8893363 50.566,34.292 C50.369999,33.6946637 50.0900018,33.260668 49.726,32.99 C49.3619982,32.719332 48.8813363,32.584 48.284,32.584 C47.6866637,32.584 47.2060018,32.719332 46.842,32.99 C46.4779982,33.260668 46.198001,33.6946637 46.002,34.292 C45.805999,34.8893363 45.6753337,35.654662 45.61,36.588 C45.5446663,37.521338 45.512,38.6599933 45.512,40.004 Z M41.48,40.004 C41.48,38.4919924 41.5499993,37.0966731 41.69,35.818 C41.8300007,34.5393269 42.1379976,33.4426712 42.614,32.528 C43.0900024,31.6133288 43.7759955,30.8993359 44.672,30.386 C45.5680045,29.8726641 46.7719924,29.616 48.284,29.616 C49.7960076,29.616 50.9999955,29.8726641 51.896,30.386 C52.7920045,30.8993359 53.4779976,31.6133288 53.954,32.528 C54.4300024,33.4426712 54.7379993,34.5393269 54.878,35.818 C55.0180007,37.0966731 55.088,38.4919924 55.088,40.004 C55.088,41.5346743 55.0180007,42.9346603 54.878,44.204 C54.7379993,45.4733397 54.4300024,46.5653288 53.954,47.48 C53.4779976,48.3946712 52.7920045,49.0946642 51.896,49.58 C50.9999955,50.0653358 49.7960076,50.308 48.284,50.308 C46.7719924,50.308 45.5680045,50.0653358 44.672,49.58 C43.7759955,49.0946642 43.0900024,48.3946712 42.614,47.48 C42.1379976,46.5653288 41.8300007,45.4733397 41.69,44.204 C41.5499993,42.9346603 41.48,41.5346743 41.48,40.004 Z" id="GO"></path>
        </g>
    </g>
</svg>
