<?xml version="1.0" encoding="UTF-8" standalone="no"?>
<svg
   xmlns:dc="http://purl.org/dc/elements/1.1/"
   xmlns:cc="http://creativecommons.org/ns#"
   xmlns:rdf="http://www.w3.org/1999/02/22-rdf-syntax-ns#"
   xmlns:svg="http://www.w3.org/2000/svg"
   xmlns="http://www.w3.org/2000/svg"
   height="64.000053"
   width="64"
   id="svg4"
   version="1.1"
   viewBox="0 0 64 64.000053">
  <metadata
     id="metadata10">
    <rdf:RDF>
      <cc:Work
         rdf:about="">
        <dc:format>image/svg+xml</dc:format>
        <dc:type
           rdf:resource="http://purl.org/dc/dcmitype/StillImage" />
        <dc:title></dc:title>
      </cc:Work>
    </rdf:RDF>
  </metadata>
  <defs
     id="defs8" />
  <path
     style="stroke-width:0.12903225;fill:#ffffff;fill-opacity:1"
     id="path2"
     d="M 32.05871,5.2026828e-5 C 40.609548,0.01540703 48.373161,3.3849552 54.105032,8.8626327 L 58.713419,4.2542455 C 60.664387,2.3034068 64,3.6850843 64,6.444052 v 17.297935 c 0,1.710323 -1.386452,3.096775 -3.096774,3.096775 H 43.60529 c -2.758967,0 -4.140645,-3.335613 -2.189806,-5.286581 l 5.387097,-5.387097 c -3.982452,-3.728903 -9.135613,-5.794451 -14.610323,-5.841677 -11.922323,-0.102968 -21.972,9.545419 -21.868903,21.863484 0.09781,11.68529 9.571355,21.49058 21.676645,21.49058 5.30671,0 10.322194,-1.893935 14.27471,-5.362064 0.612,-0.536903 1.536258,-0.504258 2.112,0.07136 l 5.117677,5.117677 c 0.628645,0.628645 0.597548,1.653548 -0.06219,2.249419 C 47.768,60.879149 40.248516,64.000052 32,64.000052 14.326968,64.000052 1.2900087e-4,49.673213 0,32.00031 -1.2899913e-4,14.347536 14.405935,-0.03156087 32.05871,5.2026828e-5 Z" />
</svg>
