<svg width="32" height="32" fill="none" xmlns="http://www.w3.org/2000/svg"><circle cx="16" cy="16" r="16" fill="#6E84FE"/><path fill-rule="evenodd" clip-rule="evenodd" d="M9.155 20.867H5a1 1 0 01-1-1v-7a1 1 0 011-1h4.116a1 1 0 01.244-.3l4-3.333a1 1 0 011.64.768v13.996a1 1 0 01-1.555.832l-4-2.666a1 1 0 01-.29-.297zm9.363-10.349a1.5 1.5 0 012.121 0 7.753 7.753 0 011.68 2.515l-1.3.539 1.3-.539a7.752 7.752 0 01-1.68 8.45 1.5 1.5 0 11-2.121-2.122 4.755 4.755 0 001.03-5.18l1.386-.574-1.386.574a4.754 4.754 0 00-1.03-1.542 1.5 1.5 0 010-2.121z" fill="#fff"/><path fill-rule="evenodd" clip-rule="evenodd" d="M22.018 7.018a1.5 1.5 0 012.121 0 12.703 12.703 0 010 17.964 1.5 1.5 0 11-2.121-2.121 9.702 9.702 0 000-13.722 1.5 1.5 0 010-2.121z" fill="#fff"/></svg>

