<?xml version="1.0" encoding="UTF-8"?>
<svg width="45px" height="15px" viewBox="0 0 45 15" version="1.1" xmlns="http://www.w3.org/2000/svg" xmlns:xlink="http://www.w3.org/1999/xlink">
    <!-- Generator: Sketch 53.2 (72643) - https://sketchapp.com -->
    <title>STOP</title>
    <desc>Created with Sketch.</desc>
    <g id="Symbols" stroke="none" stroke-width="1" fill="none" fill-rule="evenodd">
        <g id="Button/Stop/Normal" transform="translate(-17.000000, -32.000000)" fill="#FFFFFF" fill-rule="nonzero">
            <path d="M20.146,41.763 L20.146,42.162 C20.146,42.4786682 20.1713331,42.766832 20.222,43.0265 C20.2726669,43.286168 20.367666,43.5046658 20.507,43.682 C20.646334,43.8593342 20.8331655,43.9986662 21.0675,44.1 C21.3018345,44.2013338 21.5963316,44.252 21.951,44.252 C22.3690021,44.252 22.7458316,44.1158347 23.0815,43.8435 C23.4171683,43.5711653 23.585,43.1500028 23.585,42.58 C23.585,42.2759985 23.5438337,42.0131678 23.4615,41.7915 C23.3791662,41.5698322 23.2430009,41.3703342 23.053,41.193 C22.862999,41.0156658 22.6128349,40.8541674 22.3025,40.7085 C21.9921651,40.5628326 21.6090023,40.4140008 21.153,40.262 C20.544997,40.0593323 20.0193355,39.8376679 19.576,39.597 C19.1326644,39.3563321 18.7621681,39.0745016 18.4645,38.7515 C18.1668318,38.4284984 17.948334,38.0548355 17.809,37.6305 C17.669666,37.2061645 17.6,36.7153361 17.6,36.158 C17.6,34.8153266 17.9736629,33.81467 18.721,33.156 C19.4683371,32.49733 20.4943268,32.168 21.799,32.168 C22.407003,32.168 22.9674974,32.2344993 23.4805,32.3675 C23.9935026,32.5005007 24.4368315,32.7158318 24.8105,33.0135 C25.1841685,33.3111682 25.4754989,33.6911644 25.6845,34.1535 C25.893501,34.6158356 25.998,35.1699968 25.998,35.816 L25.998,36.196 L23.376,36.196 C23.376,35.5499968 23.2620011,35.0528351 23.034,34.7045 C22.8059989,34.3561649 22.4260027,34.182 21.894,34.182 C21.5899985,34.182 21.3366677,34.2263329 21.134,34.315 C20.9313323,34.4036671 20.7698339,34.5208326 20.6495,34.6665 C20.5291661,34.8121674 20.4468335,34.9799991 20.4025,35.17 C20.3581664,35.3600009 20.336,35.5563323 20.336,35.759 C20.336,36.1770021 20.4246658,36.5284986 20.602,36.8135 C20.7793342,37.0985014 21.1593304,37.3613321 21.742,37.602 L23.851,38.514 C24.3703359,38.7420011 24.794665,38.9794988 25.124,39.2265 C25.453335,39.4735012 25.7161657,39.7394986 25.9125,40.0245 C26.1088343,40.3095014 26.2449996,40.6229983 26.321,40.965 C26.3970004,41.3070017 26.435,41.6869979 26.435,42.105 C26.435,43.5363405 26.0201708,44.5781634 25.1905,45.2305 C24.3608292,45.8828366 23.2050074,46.209 21.723,46.209 C20.1776589,46.209 19.0725033,45.8733367 18.4075,45.202 C17.7424967,44.5306633 17.41,43.5680063 17.41,42.314 L17.41,41.763 L20.146,41.763 Z M37.615,32.434 L37.615,34.676 L34.651,34.676 L34.651,46 L31.915,46 L31.915,34.676 L28.951,34.676 L28.951,32.434 L37.615,32.434 Z M43.114,39.217 C43.114,40.1290046 43.1361664,40.9048301 43.1805,41.5445 C43.2248336,42.1841699 43.3134993,42.703498 43.4465,43.1025 C43.5795007,43.501502 43.7694988,43.7928324 44.0165,43.9765 C44.2635012,44.1601676 44.5896646,44.252 44.995,44.252 C45.4003354,44.252 45.7264988,44.1601676 45.9735,43.9765 C46.2205012,43.7928324 46.4104993,43.501502 46.5435,43.1025 C46.6765007,42.703498 46.7651664,42.1841699 46.8095,41.5445 C46.8538336,40.9048301 46.876,40.1290046 46.876,39.217 C46.876,38.3049954 46.8538336,37.5323365 46.8095,36.899 C46.7651664,36.2656635 46.6765007,35.7463354 46.5435,35.341 C46.4104993,34.9356646 46.2205012,34.6411676 45.9735,34.4575 C45.7264988,34.2738324 45.4003354,34.182 44.995,34.182 C44.5896646,34.182 44.2635012,34.2738324 44.0165,34.4575 C43.7694988,34.6411676 43.5795007,34.9356646 43.4465,35.341 C43.3134993,35.7463354 43.2248336,36.2656635 43.1805,36.899 C43.1361664,37.5323365 43.114,38.3049954 43.114,39.217 Z M40.378,39.217 C40.378,38.1909949 40.4254995,37.244171 40.5205,36.3765 C40.6155005,35.508829 40.8244984,34.7646698 41.1475,34.144 C41.4705016,33.5233302 41.935997,33.0388351 42.544,32.6905 C43.152003,32.3421649 43.9689949,32.168 44.995,32.168 C46.0210051,32.168 46.837997,32.3421649 47.446,32.6905 C48.054003,33.0388351 48.5194984,33.5233302 48.8425,34.144 C49.1655016,34.7646698 49.3744995,35.508829 49.4695,36.3765 C49.5645005,37.244171 49.612,38.1909949 49.612,39.217 C49.612,40.2556719 49.5645005,41.2056624 49.4695,42.067 C49.3744995,42.9283376 49.1655016,43.6693302 48.8425,44.29 C48.5194984,44.9106698 48.054003,45.385665 47.446,45.715 C46.837997,46.044335 46.0210051,46.209 44.995,46.209 C43.9689949,46.209 43.152003,46.044335 42.544,45.715 C41.935997,45.385665 41.4705016,44.9106698 41.1475,44.29 C40.8244984,43.6693302 40.6155005,42.9283376 40.5205,42.067 C40.4254995,41.2056624 40.378,40.2556719 40.378,39.217 Z M55.833,38.571 L57.049,38.571 C57.5936694,38.571 58.0338317,38.406335 58.3695,38.077 C58.7051684,37.747665 58.873,37.2346701 58.873,36.538 C58.873,35.8539966 58.7273348,35.3346684 58.436,34.98 C58.1446652,34.6253316 57.6570034,34.448 56.973,34.448 L55.833,34.448 L55.833,38.571 Z M53.097,32.434 L57.885,32.434 C58.5816702,32.434 59.1674976,32.5511655 59.6425,32.7855 C60.1175024,33.0198345 60.5006652,33.3269981 60.792,33.707 C61.0833348,34.0870019 61.2923327,34.5208309 61.419,35.0085 C61.5456673,35.4961691 61.609,35.9933308 61.609,36.5 C61.609,37.1966702 61.5045011,37.8046641 61.2955,38.324 C61.086499,38.8433359 60.7951685,39.267665 60.4215,39.597 C60.0478315,39.926335 59.5950027,40.1733325 59.063,40.338 C58.5309973,40.5026675 57.9420032,40.585 57.296,40.585 L55.833,40.585 L55.833,46 L53.097,46 L53.097,32.434 Z" id="STOP"></path>
        </g>
    </g>
</svg>