<?xml version="1.0" encoding="UTF-8"?>
<svg width="81px" height="15px" viewBox="0 0 81 15" version="1.1" xmlns="http://www.w3.org/2000/svg" xmlns:xlink="http://www.w3.org/1999/xlink">
    <!-- Generator: Sketch 53.2 (72643) - https://sketchapp.com -->
    <title>RÉPONDRE</title>
    <desc>Created with Sketch.</desc>
    <g id="03_Stock" stroke="none" stroke-width="1" fill="none" fill-rule="evenodd">
        <g id="Stock/05_RelectureConsigne" transform="translate(-861.000000, -274.000000)" fill="#000000" fill-rule="nonzero">
            <g id="Bouton-réponse" transform="translate(840.000000, 255.000000)">
                <path d="M23.6066667,27.526 L26.0146667,27.526 C26.5186692,27.526 26.8966654,27.4140011 27.1486667,27.19 C27.4006679,26.9659989 27.5266667,26.6020025 27.5266667,26.098 C27.5266667,25.6126642 27.4006679,25.2603344 27.1486667,25.041 C26.8966654,24.8216656 26.5186692,24.712 26.0146667,24.712 L23.6066667,24.712 L23.6066667,27.526 Z M21.4086667,23.004 L26.7986667,23.004 C27.2466689,23.004 27.6503315,23.0763326 28.0096667,23.221 C28.3690018,23.3656674 28.6769987,23.5639987 28.9336667,23.816 C29.1903346,24.0680013 29.3863326,24.359665 29.5216667,24.691 C29.6570007,25.022335 29.7246667,25.3793314 29.7246667,25.762 C29.7246667,26.3500029 29.6010012,26.8586645 29.3536667,27.288 C29.1063321,27.7173355 28.7026695,28.0439989 28.1426667,28.268 L28.1426667,28.296 C28.4133347,28.370667 28.6373324,28.4849992 28.8146667,28.639 C28.9920009,28.7930008 29.1366661,28.9749989 29.2486667,29.185 C29.3606672,29.395001 29.4423331,29.6259987 29.4936667,29.878 C29.5450002,30.1300013 29.5799999,30.3819987 29.5986667,30.634 C29.608,30.7926675 29.6173333,30.9793323 29.6266667,31.194 C29.636,31.4086677 29.6523332,31.6279989 29.6756667,31.852 C29.6990001,32.0760011 29.7363331,32.2883323 29.7876667,32.489 C29.8390002,32.6896677 29.9159995,32.8599993 30.0186667,33 L27.8206667,33 C27.6993327,32.6826651 27.6246668,32.3046689 27.5966667,31.866 C27.5686665,31.4273311 27.5266669,31.0073353 27.4706667,30.606 C27.3959996,30.0833307 27.2373345,29.7006679 26.9946667,29.458 C26.7519988,29.2153321 26.3553361,29.094 25.8046667,29.094 L23.6066667,29.094 L23.6066667,33 L21.4086667,33 L21.4086667,23.004 Z M39.3426667,23.004 L39.3426667,24.852 L34.0646667,24.852 L34.0646667,26.994 L38.9086667,26.994 L38.9086667,28.702 L34.0646667,28.702 L34.0646667,31.152 L39.4546667,31.152 L39.4546667,33 L31.8666667,33 L31.8666667,23.004 L39.3426667,23.004 Z M38.0546667,19.63 L35.7726667,22.108 L34.3866667,22.108 L35.8706667,19.63 L38.0546667,19.63 Z M43.4866667,27.708 L45.1946667,27.708 C45.4466679,27.708 45.6893322,27.6893335 45.9226667,27.652 C46.1560012,27.6146665 46.3613324,27.5423339 46.5386667,27.435 C46.7160009,27.3276661 46.8583328,27.176001 46.9656667,26.98 C47.0730005,26.783999 47.1266667,26.5273349 47.1266667,26.21 C47.1266667,25.8926651 47.0730005,25.636001 46.9656667,25.44 C46.8583328,25.243999 46.7160009,25.0923339 46.5386667,24.985 C46.3613324,24.8776661 46.1560012,24.8053335 45.9226667,24.768 C45.6893322,24.7306665 45.4466679,24.712 45.1946667,24.712 L43.4866667,24.712 L43.4866667,27.708 Z M41.2886667,23.004 L45.7966667,23.004 C46.4220031,23.004 46.9539978,23.0949991 47.3926667,23.277 C47.8313355,23.4590009 48.1883319,23.6993318 48.4636667,23.998 C48.7390014,24.2966682 48.939666,24.6373314 49.0656667,25.02 C49.1916673,25.4026686 49.2546667,25.7993313 49.2546667,26.21 C49.2546667,26.6113353 49.1916673,27.0056647 49.0656667,27.393 C48.939666,27.7803353 48.7390014,28.1233318 48.4636667,28.422 C48.1883319,28.7206682 47.8313355,28.9609991 47.3926667,29.143 C46.9539978,29.3250009 46.4220031,29.416 45.7966667,29.416 L43.4866667,29.416 L43.4866667,33 L41.2886667,33 L41.2886667,23.004 Z M52.7406667,28.044 C52.7406667,28.4640021 52.7896662,28.8723313 52.8876667,29.269 C52.9856671,29.6656687 53.1419989,30.0226651 53.3566667,30.34 C53.5713344,30.6573349 53.8513316,30.9116657 54.1966667,31.103 C54.5420017,31.2943343 54.9619975,31.39 55.4566667,31.39 C55.9513358,31.39 56.3713316,31.2943343 56.7166667,31.103 C57.0620017,30.9116657 57.3419989,30.6573349 57.5566667,30.34 C57.7713344,30.0226651 57.9276662,29.6656687 58.0256667,29.269 C58.1236671,28.8723313 58.1726667,28.4640021 58.1726667,28.044 C58.1726667,27.6053311 58.1236671,27.1806687 58.0256667,26.77 C57.9276662,26.3593313 57.7713344,25.9930016 57.5566667,25.671 C57.3419989,25.3489984 57.0620017,25.0923343 56.7166667,24.901 C56.3713316,24.7096657 55.9513358,24.614 55.4566667,24.614 C54.9619975,24.614 54.5420017,24.7096657 54.1966667,24.901 C53.8513316,25.0923343 53.5713344,25.3489984 53.3566667,25.671 C53.1419989,25.9930016 52.9856671,26.3593313 52.8876667,26.77 C52.7896662,27.1806687 52.7406667,27.6053311 52.7406667,28.044 Z M50.5426667,28.044 C50.5426667,27.2973296 50.6546655,26.6043365 50.8786667,25.965 C51.1026678,25.3256635 51.4246646,24.7680024 51.8446667,24.292 C52.2646688,23.8159976 52.7803303,23.442668 53.3916667,23.172 C54.003003,22.901332 54.6913295,22.766 55.4566667,22.766 C56.2313372,22.766 56.921997,22.901332 57.5286667,23.172 C58.1353364,23.442668 58.6486646,23.8159976 59.0686667,24.292 C59.4886688,24.7680024 59.8106655,25.3256635 60.0346667,25.965 C60.2586678,26.6043365 60.3706667,27.2973296 60.3706667,28.044 C60.3706667,28.7720036 60.2586678,29.4509968 60.0346667,30.081 C59.8106655,30.7110031 59.4886688,31.259331 59.0686667,31.726 C58.6486646,32.192669 58.1353364,32.5589987 57.5286667,32.825 C56.921997,33.0910013 56.2313372,33.224 55.4566667,33.224 C54.6913295,33.224 54.003003,33.0910013 53.3916667,32.825 C52.7803303,32.5589987 52.2646688,32.192669 51.8446667,31.726 C51.4246646,31.259331 51.1026678,30.7110031 50.8786667,30.081 C50.6546655,29.4509968 50.5426667,28.7720036 50.5426667,28.044 Z M62.2186667,23.004 L64.4026667,23.004 L68.5746667,29.71 L68.6026667,29.71 L68.6026667,23.004 L70.6606667,23.004 L70.6606667,33 L68.4626667,33 L64.3046667,26.308 L64.2766667,26.308 L64.2766667,33 L62.2186667,33 L62.2186667,23.004 Z M75.1406667,31.152 L77.1006667,31.152 C77.4180016,31.152 77.7259985,31.1006672 78.0246667,30.998 C78.3233348,30.8953328 78.5893322,30.7250012 78.8226667,30.487 C79.0560012,30.2489988 79.242666,29.9386686 79.3826667,29.556 C79.5226674,29.1733314 79.5926667,28.7066694 79.5926667,28.156 C79.5926667,27.6519975 79.5436671,27.197002 79.4456667,26.791 C79.3476662,26.384998 79.1866678,26.0373348 78.9626667,25.748 C78.7386655,25.4586652 78.4423352,25.2370008 78.0736667,25.083 C77.7049981,24.9289992 77.2500027,24.852 76.7086667,24.852 L75.1406667,24.852 L75.1406667,31.152 Z M72.9426667,23.004 L77.2546667,23.004 C77.8986699,23.004 78.4983305,23.1066656 79.0536667,23.312 C79.6090028,23.5173344 80.0896646,23.8253313 80.4956667,24.236 C80.9016687,24.6466687 81.2189988,25.1599969 81.4476667,25.776 C81.6763345,26.3920031 81.7906667,27.1153292 81.7906667,27.946 C81.7906667,28.6740036 81.6973343,29.3459969 81.5106667,29.962 C81.3239991,30.5780031 81.0416685,31.1099978 80.6636667,31.558 C80.2856648,32.0060022 79.8143361,32.3583321 79.2496667,32.615 C78.6849972,32.871668 78.0200038,33 77.2546667,33 L72.9426667,33 L72.9426667,23.004 Z M85.8646667,27.526 L88.2726667,27.526 C88.7766692,27.526 89.1546654,27.4140011 89.4066667,27.19 C89.6586679,26.9659989 89.7846667,26.6020025 89.7846667,26.098 C89.7846667,25.6126642 89.6586679,25.2603344 89.4066667,25.041 C89.1546654,24.8216656 88.7766692,24.712 88.2726667,24.712 L85.8646667,24.712 L85.8646667,27.526 Z M83.6666667,23.004 L89.0566667,23.004 C89.5046689,23.004 89.9083315,23.0763326 90.2676667,23.221 C90.6270018,23.3656674 90.9349987,23.5639987 91.1916667,23.816 C91.4483346,24.0680013 91.6443326,24.359665 91.7796667,24.691 C91.9150007,25.022335 91.9826667,25.3793314 91.9826667,25.762 C91.9826667,26.3500029 91.8590012,26.8586645 91.6116667,27.288 C91.3643321,27.7173355 90.9606695,28.0439989 90.4006667,28.268 L90.4006667,28.296 C90.6713347,28.370667 90.8953324,28.4849992 91.0726667,28.639 C91.2500009,28.7930008 91.3946661,28.9749989 91.5066667,29.185 C91.6186672,29.395001 91.7003331,29.6259987 91.7516667,29.878 C91.8030002,30.1300013 91.8379999,30.3819987 91.8566667,30.634 C91.866,30.7926675 91.8753333,30.9793323 91.8846667,31.194 C91.894,31.4086677 91.9103332,31.6279989 91.9336667,31.852 C91.9570001,32.0760011 91.9943331,32.2883323 92.0456667,32.489 C92.0970002,32.6896677 92.1739995,32.8599993 92.2766667,33 L90.0786667,33 C89.9573327,32.6826651 89.8826668,32.3046689 89.8546667,31.866 C89.8266665,31.4273311 89.7846669,31.0073353 89.7286667,30.606 C89.6539996,30.0833307 89.4953345,29.7006679 89.2526667,29.458 C89.0099988,29.2153321 88.6133361,29.094 88.0626667,29.094 L85.8646667,29.094 L85.8646667,33 L83.6666667,33 L83.6666667,23.004 Z M94.1246666,23.004 L101.600667,23.004 L101.600667,24.852 L96.3226667,24.852 L96.3226667,26.994 L101.166667,26.994 L101.166667,28.702 L96.3226667,28.702 L96.3226667,31.152 L101.712667,31.152 L101.712667,33 L94.1246666,33 L94.1246666,23.004 Z" id="RÉPONDRE"></path>
            </g>
        </g>
    </g>
</svg>