<?xml version="1.0" encoding="UTF-8"?>
<svg width="64" height="64" version="1.1" xmlns="http://www.w3.org/2000/svg">
 <g transform="translate(5.0967 -7.375)">
  <path d="m18.242 19.75c3.849-6.6667 13.472-6.6667 17.321 0l16.888 29.25c3.849 6.6667-0.9623 15-8.6603 15h-33.775c-7.698 0-12.509-8.3333-8.6603-15z" fill="#fdaf54"/>
  <path d="m26.921 47.963c-0.8521 0-1.3158-0.561-1.391-1.6829l-1.0902-16.297c-0.0501-0.9153 0.1504-1.6829 0.6015-2.3029 0.4762-0.62 1.0902-0.93 1.8421-0.93s1.3659 0.31 1.8421 0.93 0.6767 1.3876 0.6015 2.3029l-1.0526 16.297c-0.0752 1.1219-0.5263 1.6829-1.3534 1.6829zm-0.2632 9.7871c-0.7268 0-1.2907-0.2214-1.6917-0.6643-0.3759-0.4724-0.5639-1.1367-0.5639-1.9928v-0.7529c0-0.8562 0.188-1.5057 0.5639-1.9486 0.401-0.4724 0.9649-0.7085 1.6917-0.7085h0.4888c0.7268 0 1.2782 0.2361 1.6541 0.7085 0.401 0.4429 0.6015 1.0924 0.6015 1.9486v0.7529c0 0.8561-0.2005 1.5204-0.6015 1.9928-0.3759 0.4429-0.9273 0.6643-1.6541 0.6643z" fill="#fbf9fa"/>
 </g>
</svg>
