<?xml version="1.0" encoding="UTF-8"?>
<svg width="64" height="64" version="1.1" viewBox="0 0 64 64" xmlns="http://www.w3.org/2000/svg">
 <path d="m23.34 12.375c3.849-6.6667 13.472-6.6667 17.32 0l16.888 29.25c3.849 6.6667-0.9623 15-8.6603 15h-33.775c-7.698 0-12.509-8.3333-8.6602-15zm4.1828 28.844c-1.0226 0-1.579-0.5248-1.6692-1.5743l-1.3083-15.246c-0.0601-0.8562 0.1805-1.5743 0.7218-2.1543 0.5715-0.58 1.3083-0.87 2.2106-0.87 0.9022 0 1.6391 0.29 2.2105 0.87s0.812 1.2981 0.7218 2.1543l-1.2632 15.246c-0.0902 1.0495-0.6315 1.5743-1.624 1.5743zm-0.3158 9.1557c-0.8722 0-1.5489-0.2071-2.0301-0.6214-0.4511-0.4419-0.6767-1.0634-0.6767-1.8643v-0.7043c0-0.801 0.2256-1.4086 0.6767-1.8229 0.4812-0.4419 1.1579-0.6628 2.0301-0.6628h0.5864c0.8722 0 1.5339 0.2209 1.985 0.6628 0.4812 0.4143 0.7218 1.0219 0.7218 1.8229v0.7043c0 0.8009-0.2406 1.4224-0.7218 1.8643-0.4511 0.4143-1.1128 0.6214-1.985 0.6214zm7.6466-10.73c0.0902 1.0495 0.6466 1.5743 1.6692 1.5743 0.9925 0 1.5338-0.5248 1.624-1.5743l1.2632-15.246c0.0902-0.8562-0.1504-1.5743-0.7218-2.1543s-1.3083-0.87-2.2105-0.87c-0.9023 0-1.6391 0.29-2.2106 0.87-0.5413 0.58-0.7819 1.2981-0.7218 2.1543zm-0.6767 10.109c0.4812 0.4143 1.1579 0.6214 2.0301 0.6214h0.5864c0.8722 0 1.5339-0.2071 1.985-0.6214 0.4812-0.4419 0.7218-1.0634 0.7218-1.8643v-0.7043c0-0.801-0.2406-1.4086-0.7218-1.8229-0.4511-0.4419-1.1128-0.6628-1.985-0.6628h-0.5864c-0.8722 0-1.5489 0.2209-2.0301 0.6628-0.4511 0.4143-0.6767 1.0219-0.6767 1.8229v0.7043c0 0.8009 0.2256 1.4224 0.6767 1.8643z" clip-rule="evenodd" fill="#fd5c54" fill-rule="evenodd"/>
</svg>
