<svg width="64" height="55" fill="none" xmlns="http://www.w3.org/2000/svg"><path fill-rule="evenodd" clip-rule="evenodd" d="M31.41 4.766c-9.29 0-17.108 7.561-17.108 16.779a2.386 2.386 0 01-2.39 2.383 2.386 2.386 0 01-2.388-2.383C9.524 9.597 19.58 0 31.41 0c11.83 0 21.887 9.597 21.887 21.545 0 1.718-.178 3.386-.523 4.987a9.223 9.223 0 013.453.723c1.14.457 2.103 1.048 2.89 1.774v-.04c0-.7.23-1.277.691-1.734.461-.483 1.044-.725 1.75-.725.705 0 1.288.228 1.75.685.46.457.691 1.048.691 1.774V46.04c0 .699-.23 1.29-.692 1.774-.46.457-1.044.685-1.75.685-.705 0-1.288-.228-1.749-.685-.434-.457-.664-1.035-.692-1.733-.678.779-1.6 1.45-2.767 2.015a8.383 8.383 0 01-3.62.806c-1.872 0-3.568-.47-5.087-1.41-1.519-.968-2.726-2.298-3.621-3.991-.28-.548-.516-1.12-.706-1.715l-10.067 12.09a2.392 2.392 0 01-3.676 0l-7.644-9.18a2.378 2.378 0 01.312-3.355 2.394 2.394 0 013.365.311l5.805 6.972 13.428-16.127c2.357-2.995 3.68-6.728 3.68-10.952 0-9.218-7.817-16.78-17.108-16.78zm17.125 30.752l-1.093 1.313a9.362 9.362 0 00-.043.905c0 1.935.542 3.547 1.627 4.837 1.113 1.264 2.55 1.895 4.313 1.895 1.764 0 3.201-.632 4.314-1.895 1.112-1.29 1.668-2.902 1.668-4.837 0-1.935-.556-3.547-1.668-4.837-1.113-1.29-2.55-1.935-4.313-1.935-.806 0-1.545.139-2.217.417a21.667 21.667 0 01-2.588 4.136zm-28.557 3.266c.488-.403.746-.927.773-1.572 0-1.908-.474-3.682-1.424-5.321a10.84 10.84 0 00-3.825-3.91c-1.573-.968-3.255-1.451-5.045-1.451-1.817 0-3.526.47-5.127 1.41-1.6.914-2.889 2.244-3.865 3.991C.488 33.678 0 35.707 0 38.018c0 2.07.461 3.937 1.383 5.603.923 1.64 2.225 2.93 3.907 3.87 1.708.94 3.702 1.411 5.98 1.411 1.303 0 2.591-.215 3.866-.645 1.275-.43 2.292-.954 3.052-1.572.76-.591 1.14-1.25 1.14-1.975 0-.538-.204-1.008-.611-1.411a2.007 2.007 0 00-1.465-.605c-.434 0-.895.121-1.383.363-.136.08-.394.242-.774.484-.352.215-.84.43-1.464.645-.624.188-1.492.282-2.604.282a6.355 6.355 0 01-3.947-1.33c-1.167-.914-1.913-2.164-2.238-3.75h13.427c.651 0 1.22-.2 1.71-.604zM4.883 35.358c.57-2.93 2.427-4.394 5.574-4.394 1.275 0 2.414.403 3.418 1.21 1.004.805 1.56 1.773 1.668 2.902v.282H4.883z" fill="#FBF9FA"/></svg>
