<svg viewBox="0 0 146 106" fill="none" xmlns="http://www.w3.org/2000/svg"><rect x="1.5" y="1.5" width="142.292" height="102.745" rx="17.5" fill="#FBF9FA" stroke="#FDAF54" stroke-width="3"/><path d="M19 3C10.164 3 3 10.164 3 19v67.745c0 8.837 7.164 16 16 16h54.035c-8.264-7.58-17.487-16.877-18.792-19.849-3.877-2.467-9.753-11.858-14.1-18.806l-.006-.009a628.127 628.127 0 00-1.71-2.722l-.171 6.525a4.11 4.11 0 001.584-.678l.01-.006 1.314-.877.483.725-1.297.864c-1.08.795-3.844 1.807-6.312-.471-1.61-1.486-7.918-6.966-11.779-10.32l-.015-.013c-1.555-1.351-2.71-2.355-2.996-2.609a8.237 8.237 0 01-.772-.756c-.242-.281-.47-.616-.574-1-.11-.399-.077-.828.164-1.255.232-.412.643-.797 1.243-1.166a125.514 125.514 0 013.868-2.306l1.005-1.484a.435.435 0 01.393-.19l8.263-5.957-.444-.444c.087-.088.212-.306.165-.638-.047-.331-.276-.831-1.007-1.44-1.56-1.301-8.11-6.482-11.196-8.914l-.041-.032-.032-.041c-.228-.29-.51-.776-.596-1.304a1.676 1.676 0 01.07-.86 1.53 1.53 0 01.634-.757 50.016 50.016 0 001.94-1.292l.108.151L24.72 21.3a.435.435 0 01.355-.198.666.666 0 01.118-.08l8.495-4.462a2.61 2.61 0 012.554.071l9.47 5.664a.523.523 0 01.017.01.435.435 0 01.33.289l.905 2.676.04-.05 1.518 1.192a6.504 6.504 0 001.802.913c.759.238 1.548.302 2.223.013 1.2-.515 2.253-1.33 2.913-1.842.144-.111.27-.209.374-.285l.057.078.395-.53a.434.434 0 01.191-.146.663.663 0 01.1-.08l7.255-4.669a2.611 2.611 0 012.642-.108l2.553 1.361a28.52 28.52 0 011.97-1.756c2.436-2.002 5.222-.835 6.31 0l3.807 2.502.093.007c-.01.02-.02.039-.028.059a1 1 0 00.507 1.32c.1.044.238.16.294.515.058.367 0 .886-.235 1.458-.469 1.138-1.533 2.235-3.112 2.498-.84.14-1.777.049-2.741-.2l-2.116 1.41c1.635.64 3.465 1.05 5.185.763 2.375-.396 3.948-2.046 4.633-3.71.341-.828.49-1.723.362-2.53-.08-.501-.274-1.002-.617-1.405 4.331.386 11.07 1.117 14.856 1.99 4.744 1.096 18.746 6.398 25.901 9.108 1.378.522 2.501.947 3.257 1.228 4.581 1.705 10.31 4.453 14.938 8.346V19c0-8.837-7.163-16-16-16H19z" fill="#1E416A"/><path fill-rule="evenodd" clip-rule="evenodd" d="M35.226 27.757l-9.301-6.136 8.168-4.291a1.74 1.74 0 011.703.047l9.164 5.481-7.851 4.921a1.74 1.74 0 01-1.883-.022zm-1.11-6.654a.653.653 0 000-1.305H31.07v2.173a.653.653 0 001.305 0v-.867h1.74z" fill="#1E416A"/><path fill-rule="evenodd" clip-rule="evenodd" d="M21.425 27.974l3.763-5.797 9.558 6.306a2.611 2.611 0 002.825.034l7.9-4.951 2.267 6.704c.009.025.02.05.032.072l-6.026 4.344a.55.55 0 00-.02.014.435.435 0 00-.34.174l-4.172 5.561-1.005-.58a2.611 2.611 0 00-2.832.143l-.034.025c.086-.24.125-.525.08-.842-.087-.612-.475-1.29-1.311-1.987-1.566-1.304-8.075-6.453-11.173-8.895a2.324 2.324 0 01-.143-.218l.03.02c.2.132.47.074.601-.127zm14.757 2.295a.435.435 0 00-.869-.06l-.544 8.052a.435.435 0 00.869.058l.544-8.05z" fill="#1E416A"/><path d="M20.695 27.5a.434.434 0 00-.07.226 1.588 1.588 0 01-.079-.293.811.811 0 01.027-.415.664.664 0 01.286-.328c.22-.14.429-.276.623-.403l-.787 1.213zM24.54 47.556l-4.207 6.21a.435.435 0 01-.385.19c.408.358 1.455 1.268 2.819 2.453l.003.002c3.855 3.35 10.239 8.895 11.859 10.39.921.85 1.888 1.151 2.754 1.164l.208-7.915-.211-.327a11.499 11.499 0 01-1.8-5.008l-11.04-7.159zM19.543 53.592a.433.433 0 01.07-.314l2.437-3.599c-.613.364-1.376.825-2.285 1.384-.532.328-.808.617-.941.852a.749.749 0 00-.083.6c.056.204.191.424.395.66.123.143.262.281.407.417z" fill="#1E416A"/><path fill-rule="evenodd" clip-rule="evenodd" d="M135.182 99.517c-.194-5.502-1.742-9.524-2.498-10.855-4.431-4.616-9.098-11.034-12.271-15.398l-.002-.004a397.286 397.286 0 00-1.544-2.114 64.304 64.304 0 01-1.701-2.474c-2.642-3.963-5.96-8.942-12.986-12.322-8.595-4.134-16.972-11.206-18.822-13.382-4.26-1.243-13.158-6.904-17.175-11.133a2.61 2.61 0 01-.859-.292L56.68 25.688l-3.373 4.53 9.51 5.49a.666.666 0 01.123.092c.14.034.261.137.311.284l3.046 9.03a.435.435 0 11-.825.278l-2.84-8.422-7.745 5.367a2.61 2.61 0 01-2.908.045l-10.185-6.604-3.821 5.095 3.089 1.784c.255-.165.515-.315.78-.45 3.687-1.884 7.659.591 11.096 3.465v-1.507a.435.435 0 01.87 0v2.25c.629.548 1.236 1.098 1.816 1.624l.002.002.819.739a1 1 0 00-.367 1.04c.07.28-.006.847-.477 1.651-.447.765-1.167 1.592-2.07 2.312-1.836 1.462-4.186 2.304-6.293 1.65-1.753-.544-2.966-1.351-3.885-2.27l-1.657 1.148c1.152 1.213 2.715 2.339 4.95 3.032 2.99.928 6.023-.317 8.13-1.996 1.07-.851 1.962-1.859 2.551-2.866.408-.697.722-1.485.768-2.26 5.831 4.994 21.4 17.627 27.917 20.49 5.217 2.292 32.543 18.696 49.171 28.806zm-75.23-48.182l15.992-13.056.55.675-15.992 13.055-.55-.674zm7.82-18.266c.24.021.416.233.395.472l-.98 11.097a.435.435 0 11-.866-.076l.979-11.097a.435.435 0 01.472-.396z" fill="#1E416A"/><path d="M72.82 28.522l2.003-1.335c-.495-.18-.99-.393-1.48-.629-1.777-.861-3.29-1.958-4-2.567a1 1 0 00-1.302 1.519c.827.71 2.483 1.904 4.431 2.848.114.055.23.11.348.164z" fill="#1E416A"/><path fill-rule="evenodd" clip-rule="evenodd" d="M68.401 21.768c-1.938 2.119-3.237 4.642-2.082 7.492.134.33.34.69.607 1.07l-9.57-5.263 6.948-4.472a1.74 1.74 0 011.761-.072l2.336 1.245zm-4.77 3.902a.653.653 0 101.305 0v-2.368h-2.969a.653.653 0 100 1.306h1.663v1.062zM35.772 40.609l4.512 2.604c-2.826 2.239-4.87 6.255-4.777 10.418l-10.295-6.675 8.672-6.252a1.74 1.74 0 011.888-.095zm-4.159 3.012c.36 0 .653.292.653.653v1.197h1.958a.653.653 0 110 1.305h-3.263v-2.502c0-.36.292-.653.652-.653z" fill="#1E416A"/><path d="M42.761 52.513l-1.646 1.141c-.832-1.011-1.42-2.039-1.907-2.892-.28-.49-.528-.924-.77-1.262a1 1 0 011.627-1.163c.368.516.696 1.08 1.034 1.661.484.833.989 1.702 1.662 2.515zM54.35 27.36c-.449.281-.943.556-1.459.777-.944.404-1.969.287-2.827.017A7.37 7.37 0 0148 27.108l-.005-.004-.557-.438 1.064 3.147.454-.327a2.611 2.611 0 012.833-.143l.758.437 1.802-2.42z" fill="#1E416A"/><path fill-rule="evenodd" clip-rule="evenodd" d="M42.51 35.206l9.941 6.445a1.741 1.741 0 001.939-.03l7.693-5.331-10.73-6.194a1.74 1.74 0 00-1.888.096l-6.954 5.014zm3.573-.833c0-.36.292-.652.653-.652h1.74v-1.197a.653.653 0 111.306 0v2.502h-3.046a.653.653 0 01-.653-.653z" fill="#1E416A"/></svg>
