<svg width="46" height="49" viewBox="0 0 46 49" fill="none" xmlns="http://www.w3.org/2000/svg">
<mask id="path-1-inside-1" fill="white">
<path fill-rule="evenodd" clip-rule="evenodd" d="M40.6827 7.02264C39.9896 6.40872 38.93 6.47294 38.3161 7.16608L15.9363 32.4338L6.9815 30.6068C5.89923 30.386 4.84287 31.0843 4.62205 32.1666L3.31358 38.5799C3.06029 39.8213 4.01048 40.9824 5.27747 40.9797L17.53 40.9536C18.4789 40.9515 19.2957 40.2831 19.4854 39.3534L20.2991 35.3651C20.4559 34.5964 20.149 33.8407 19.5701 33.3882L40.8262 9.38926C41.4401 8.69613 41.3759 7.63655 40.6827 7.02264Z"/>
</mask>
<path d="M15.9363 32.4338L15.7364 33.4136L16.3021 33.529L16.6849 33.0968L15.9363 32.4338ZM6.9815 30.6068L6.78159 31.5866L6.78159 31.5866L6.9815 30.6068ZM4.62205 32.1666L3.64224 31.9667L4.62205 32.1666ZM3.31358 38.5799L4.29339 38.7798L4.29339 38.7798L3.31358 38.5799ZM5.27747 40.9797L5.27961 41.9797L5.27961 41.9797L5.27747 40.9797ZM17.53 40.9536L17.5322 41.9536L17.53 40.9536ZM19.4854 39.3534L20.4652 39.5533L19.4854 39.3534ZM20.2991 35.3651L19.3193 35.1652L20.2991 35.3651ZM19.5701 33.3882L18.8215 32.7252L18.1164 33.5213L18.9543 34.1761L19.5701 33.3882ZM39.0647 7.82911C39.3124 7.54941 39.74 7.52349 40.0197 7.77123L41.3458 6.27405C40.2392 5.29395 38.5476 5.39647 37.5675 6.50304L39.0647 7.82911ZM16.6849 33.0968L39.0647 7.82911L37.5675 6.50304L15.1877 31.7708L16.6849 33.0968ZM6.78159 31.5866L15.7364 33.4136L16.1362 31.454L7.18141 29.627L6.78159 31.5866ZM5.60187 32.3665C5.71227 31.8254 6.24046 31.4762 6.78159 31.5866L7.18141 29.627C5.558 29.2958 3.97346 30.3433 3.64224 31.9667L5.60187 32.3665ZM4.29339 38.7798L5.60187 32.3665L3.64224 31.9667L2.33376 38.38L4.29339 38.7798ZM5.27534 39.9797C4.64184 39.9811 4.16675 39.4005 4.29339 38.7798L2.33376 38.38C1.95383 40.2421 3.37912 41.9838 5.27961 41.9797L5.27534 39.9797ZM17.5279 39.9536L5.27534 39.9797L5.27961 41.9797L17.5322 41.9536L17.5279 39.9536ZM18.5056 39.1535C18.4107 39.6183 18.0023 39.9526 17.5279 39.9536L17.5322 41.9536C18.9554 41.9505 20.1807 40.9478 20.4652 39.5533L18.5056 39.1535ZM19.3193 35.1652L18.5056 39.1535L20.4652 39.5533L21.2789 35.565L19.3193 35.1652ZM18.9543 34.1761C19.2459 34.404 19.3974 34.7823 19.3193 35.1652L21.2789 35.565C21.5145 34.4104 21.0521 33.2773 20.1859 32.6003L18.9543 34.1761ZM40.0776 8.72623L18.8215 32.7252L20.3187 34.0513L41.5748 10.0523L40.0776 8.72623ZM40.0197 7.77123C40.2994 8.01896 40.3253 8.44653 40.0776 8.72623L41.5748 10.0523C42.5549 8.94572 42.4523 7.25414 41.3458 6.27405L40.0197 7.77123Z" fill="#1E416A" mask="url(#path-1-inside-1)"/>
<circle cx="12" cy="40" r="3.5" fill="white" stroke="#1E416A"/>
<circle cx="12.5" cy="38.5" r="0.5" fill="black"/>
<circle cx="13.5" cy="40.5" r="0.5" fill="black"/>
<circle cx="10.5" cy="39.5" r="0.5" fill="black"/>
<circle cx="11.5" cy="40.5" r="0.5" fill="black"/>
<path d="M12 44L12 48" stroke="#1E416A" stroke-linecap="round"/>
</svg>
