<svg width="36" height="36" viewBox="0 0 36 36" fill="none" xmlns="http://www.w3.org/2000/svg">
<path d="M20.625 10.5C20.625 8.99927 22.0152 6.49756 23.2379 4.99781C23.9358 4.14168 24.75 4.63328 24.75 5.73785V30.75C24.75 31.5 24 32.25 23.25 32.25C22.5 32.25 21.75 31.5 21.75 30.75V19.5C21.75 19.4594 21.7493 19.4199 21.7479 19.3813C21.7078 18.2775 20.625 17.1046 20.625 16.0001V10.5Z" stroke="#1E416A"/>
<path d="M12 30.7501V16.0661C12 15.3974 11.6658 14.7772 11.1094 14.4063L10.6406 14.0937C10.0842 13.7228 9.75 13.0983 9.75 12.4296V5.25C9.75 4.83579 10.0858 4.5 10.5 4.5C10.9142 4.5 11.25 4.83579 11.25 5.25V11.25C11.25 11.6642 11.5858 12 12 12C12.4142 12 12.75 11.6642 12.75 11.25V5.25C12.75 4.83579 13.0858 4.5 13.5 4.5C13.9142 4.5 14.25 4.83579 14.25 5.25V11.25C14.25 11.6642 14.5858 12 15 12C15.4142 12 15.75 11.6642 15.75 11.25V5.25C15.75 4.83579 16.0858 4.5 16.5 4.5C16.9142 4.5 17.25 4.83579 17.25 5.25V12.4296C17.25 13.0983 16.9158 13.7228 16.3594 14.0937L15.8906 14.4063C15.3342 14.7772 15 15.3968 15 16.0655V30.7501C15 31.5 14.25 32.2501 13.5 32.2501C12.75 32.2501 12 31.5 12 30.7501Z" stroke="#1E416A"/>
<circle cx="18" cy="18" r="17.5" stroke="#1E416A"/>
</svg>
