<svg width="38" height="36" viewBox="0 0 38 36" fill="none" xmlns="http://www.w3.org/2000/svg">
<circle cx="7" cy="4" r="2.5" stroke="#1E416A" stroke-linecap="round" stroke-linejoin="round"/>
<mask id="path-2-inside-1" fill="white">
<path fill-rule="evenodd" clip-rule="evenodd" d="M2 11C2 9.89543 2.89543 9 4 9H10C11.1046 9 12 9.89543 12 11V21V33C12 34.1046 11.1046 35 10 35C8.89543 35 8 34.1046 8 33V23H6V33C6 34.1046 5.10457 35 4 35C2.89543 35 2 34.1046 2 33V21V11Z"/>
</mask>
<path d="M8 23H9C9 22.4477 8.55228 22 8 22V23ZM6 23V22C5.44772 22 5 22.4477 5 23H6ZM4 8C2.34315 8 1 9.34315 1 11H3C3 10.4477 3.44772 10 4 10V8ZM10 8H4V10H10V8ZM13 11C13 9.34315 11.6569 8 10 8V10C10.5523 10 11 10.4477 11 11H13ZM13 21V11H11V21H13ZM11 21V33H13V21H11ZM11 33C11 33.5523 10.5523 34 10 34V36C11.6569 36 13 34.6569 13 33H11ZM10 34C9.44771 34 9 33.5523 9 33H7C7 34.6569 8.34315 36 10 36V34ZM9 33V23H7V33H9ZM6 24H8V22H6V24ZM7 33V23H5V33H7ZM4 36C5.65685 36 7 34.6569 7 33H5C5 33.5523 4.55229 34 4 34V36ZM1 33C1 34.6569 2.34315 36 4 36V34C3.44771 34 3 33.5523 3 33H1ZM1 21V33H3V21H1ZM1 11V21H3V11H1Z" fill="#1E416A" mask="url(#path-2-inside-1)"/>
<path d="M0.5 12C0.5 11.1716 1.17157 10.5 2 10.5H2.5V21.5H2C1.17157 21.5 0.5 20.8284 0.5 20V12Z" stroke="#1E416A" stroke-linecap="round" stroke-linejoin="round"/>
<path d="M13.5 20C13.5 20.8284 12.8284 21.5 12 21.5L11.5 21.5L11.5 10.5L12 10.5C12.8284 10.5 13.5 11.1716 13.5 12L13.5 20Z" stroke="#1E416A" stroke-linecap="round" stroke-linejoin="round"/>
<circle cx="30" cy="4" r="2.5" stroke="#1E416A" stroke-linecap="round" stroke-linejoin="round"/>
<path d="M26.2497 10.7879C26.3552 10.0489 26.9881 9.5 27.7346 9.5H32.2654C33.0119 9.5 33.6448 10.0489 33.7503 10.7879L35.1789 20.7879C35.308 21.6915 34.6068 22.5 33.694 22.5H26.306C25.3932 22.5 24.692 21.6915 24.8211 20.7879L26.2497 10.7879Z" stroke="#1E416A" stroke-linecap="round" stroke-linejoin="round"/>
<path d="M25.5 33V22.5001L28.5 22.5V33C28.5 33.8284 27.8284 34.5 27 34.5C26.1716 34.5 25.5 33.8284 25.5 33Z" stroke="#1E416A" stroke-linecap="round" stroke-linejoin="round"/>
<path d="M31.5 22.5L34.5 22.5V33C34.5 33.8284 33.8284 34.5 33 34.5C32.1716 34.5 31.5 33.8284 31.5 33V22.5Z" stroke="#1E416A" stroke-linecap="round" stroke-linejoin="round"/>
<path d="M36.9288 18.9653C37.0495 19.7849 36.4829 20.5471 35.6633 20.6678L35.1687 20.7406L33.5661 9.858L34.0608 9.78516C34.8804 9.66447 35.6426 10.231 35.7633 11.0506L36.9288 18.9653Z" stroke="#1E416A" stroke-linecap="round" stroke-linejoin="round"/>
<path d="M22.786 18.9653C22.6653 19.7849 23.2319 20.5471 24.0515 20.6678L24.5462 20.7406L26.1487 9.858L25.654 9.78516C24.8345 9.66447 24.0722 10.231 23.9515 11.0506L22.786 18.9653Z" stroke="#1E416A" stroke-linecap="round" stroke-linejoin="round"/>
<path d="M19 1V35.5" stroke="#1E416A" stroke-linecap="round" stroke-linejoin="round"/>
</svg>
