<svg width="44" height="27" viewBox="0 0 44 27" fill="none" xmlns="http://www.w3.org/2000/svg">
<rect x="0.5" y="13.5" width="3" height="13" rx="1.5" stroke="#1E416A"/>
<rect x="20.5" y="13.5" width="3" height="13" rx="1.5" stroke="#1E416A"/>
<rect x="40.5" y="13.5" width="3" height="13" rx="1.5" stroke="#1E416A"/>
<rect x="3.5" y="16.5" width="17" height="2" stroke="#1E416A"/>
<rect x="3.5" y="21.5" width="17" height="2" stroke="#1E416A"/>
<rect x="23.5" y="21.5" width="17" height="2" stroke="#1E416A"/>
<rect x="23.5" y="16.5" width="17" height="2" stroke="#1E416A"/>
<path d="M9.75 9.678C9.75 11.3707 10.591 13.8715 10.591 15C9.96825 15 8.72275 15 8.1 15C8.1 13.8715 7 11.3855 7 8C7 4.61454 8.3995 2.97605 9.09925 2.32438C9.48594 1.86783 12.1947 1.50813 12.7775 1.27926C13.3602 1.05038 13.9978 0.959885 14.6299 1.01632C15.262 1.07275 15.8678 1.27424 16.39 1.60177C16.9123 1.9293 17.3338 2.37204 17.6147 2.88819C17.8956 3.40434 18.0267 3.97685 17.9955 4.55164C17.9643 5.12644 17.7719 8.01788 17.4365 8.50658C17.1011 8.99528 16.6337 9.39845 16.0785 9.678C15.5233 9.95755 14.8987 10.1042 14.2635 10.1042L13.6 8" stroke="#1E416A" stroke-linecap="round" stroke-linejoin="round"/>
<path d="M38 15C38 12.57 37.3894 10.1818 36.2282 8.0704C35.0671 5.95895 33.3954 4.19692 31.3775 2.95761C29.3596 1.7183 27.0651 1.04437 24.7196 1.00212C22.374 0.959862 20.0583 1.55073 18 2.71661" stroke="#1E416A" stroke-linecap="round"/>
<path d="M9 8C8.42857 9.26316 7.28571 9.89474 5.57143 10.5263C3.85714 11.1579 2.71429 11.1579 1 10.5263" stroke="#1E416A" stroke-linecap="round"/>
<path d="M6 8C5.71429 8.42105 5.14286 8.63158 4.28571 8.84211C3.42857 9.05263 2.85714 9.05263 2 8.84211" stroke="#1E416A" stroke-linecap="round"/>
<circle cx="10.5" cy="6.5" r="0.5" fill="black"/>
</svg>
